<svg width="17" height="17" fill="none" xmlns="http://www.w3.org/2000/svg"><path d="M8.562 9.16h-.113c-1.032-.018-1.866-.38-2.482-1.074C4.612 6.56 4.837 3.94 4.862 3.69 4.95 1.813 5.837.915 6.569.496 7.115.183 7.752.014 8.463 0h.059c.392 0 1.16.063 1.895.482.74.42 1.64 1.317 1.728 3.207.025.25.25 2.87-1.105 4.397-.613.694-1.447 1.056-2.478 1.074zm2.643-5.383c0-.01-.003-.02-.003-.028C11.086 1.225 9.294.954 8.526.954h-.042c-.95.021-2.566.408-2.675 2.795 0 .01 0 .021-.004.028-.003.025-.25 2.419.87 3.68.443.5 1.035.746 1.813.753h.035c.774-.007 1.37-.254 1.81-.754 1.115-1.253.876-3.657.872-3.679z" fill="#046EE3"/><path d="M1.27 13.504v-.01c0-.028.004-.057.004-.088.022-.697.067-2.327 1.595-2.848.01-.004.025-.007.035-.01 1.588-.406 2.908-1.321 2.922-1.332a.475.475 0 11.546.778c-.06.043-1.461 1.018-3.214 1.468-.82.293-.912 1.17-.937 1.972 0 .032 0 .06-.003.088-.004.317.017.806.074 1.088.57.324 2.806 1.443 6.206 1.443 3.387 0 5.636-1.123 6.21-1.447.057-.281.081-.77.074-1.088 0-.028-.003-.056-.003-.088-.025-.802-.117-1.679-.937-1.971-1.753-.45-3.154-1.43-3.214-1.468a.475.475 0 11.546-.778c.014.01 1.327.926 2.922 1.33l.035.011c1.528.525 1.573 2.155 1.595 2.848 0 .032 0 .06.003.088v.01c.004.184.007 1.124-.18 1.595a.451.451 0 01-.182.222C15.26 15.387 12.73 17 8.495 17c-4.235 0-6.766-1.616-6.872-1.683a.47.47 0 01-.183-.222c-.176-.468-.173-1.408-.17-1.59z" fill="#046EE3"/></svg>