<svg width="22" height="22" fill="none" xmlns="http://www.w3.org/2000/svg"><path d="M11.08 11.854h-.146c-1.335-.023-2.415-.492-3.212-1.39-1.754-1.977-1.462-5.366-1.43-5.69.113-2.428 1.262-3.59 2.21-4.132.705-.405 1.53-.624 2.45-.642h.078c.505 0 1.498.082 2.45.624.957.542 2.124 1.704 2.237 4.15.032.324.324 3.713-1.43 5.69-.793.898-1.872 1.367-3.207 1.39zm3.42-6.966c0-.013-.004-.027-.004-.036-.15-3.267-2.47-3.617-3.463-3.617h-.053c-1.23.027-3.32.528-3.462 3.617 0 .014 0 .027-.004.036-.005.032-.324 3.13 1.125 4.761.574.647 1.34.966 2.346.975h.046c1.002-.009 1.772-.328 2.341-.975 1.444-1.622 1.135-4.733 1.13-4.76z" fill="#046EE3"/><path d="M1.645 17.476v-.014c0-.036.004-.072.004-.113.028-.902.087-3.012 2.064-3.686l.046-.014c2.054-.524 3.763-1.708 3.78-1.722a.614.614 0 11.707 1.007c-.077.055-1.89 1.317-4.16 1.9-1.061.378-1.18 1.512-1.211 2.551 0 .041 0 .077-.005.114-.004.41.023 1.043.096 1.408.738.419 3.63 1.867 8.032 1.867 4.382 0 7.293-1.453 8.036-1.872.073-.364.105-.998.096-1.408 0-.036-.005-.073-.005-.114-.032-1.038-.15-2.173-1.212-2.55-2.268-.584-4.082-1.85-4.159-1.9a.614.614 0 11.706-1.008c.018.014 1.718 1.199 3.781 1.723.019.004.032.009.046.013 1.977.68 2.036 2.789 2.064 3.686 0 .041 0 .077.004.114v.014c.005.236.01 1.453-.232 2.063a.585.585 0 01-.237.287C19.75 19.913 16.474 22 10.993 22c-5.48 0-8.756-2.091-8.893-2.178a.61.61 0 01-.237-.287c-.227-.606-.223-1.822-.218-2.059z" fill="#046EE3"/></svg>