<svg width="35" height="49" viewBox="0 0 35 49" fill="none" xmlns="http://www.w3.org/2000/svg">
<path d="M0 17.481C0 7.84196 7.84196 0 17.4811 0C27.1201 0 34.962 7.84196 34.9622 17.481C34.9622 29.4433 19.3183 47.0047 18.6523 47.7465C18.0278 48.442 16.9355 48.4433 16.3099 47.7465C15.6438 47.0047 0 29.4433 0 17.481Z" fill="#CA0100"/>
<path d="M19.8589 9.9815C21.9325 14.4944 24.0228 19.0074 26.1131 23.5535C26.18 23.4871 26.2301 23.4374 26.2803 23.3876C26.899 22.4585 27.3505 21.4796 27.6515 20.4011C27.9191 19.4554 28.0529 18.493 28.0194 17.5307C27.9693 15.3074 27.2669 13.2833 25.9124 11.5079C25.1097 10.4461 24.1231 9.5833 22.986 8.90304C22.0997 8.37211 21.1465 7.95732 20.1098 7.74162C19.9425 7.70844 19.7753 7.67526 19.6081 7.64207C19.491 7.60889 19.4241 7.65867 19.374 7.75822C18.9392 8.60439 18.5044 9.45057 18.0696 10.3133C17.3171 11.79 16.5646 13.2501 15.8288 14.7267C15.2603 15.8384 14.6917 16.9666 14.1232 18.0783C13.4543 19.389 12.7854 20.7163 12.0998 22.0271C11.6148 22.9894 11.1299 23.9517 10.6282 24.914C10.5446 25.08 10.5613 25.1795 10.7118 25.2956C11.0128 25.5279 11.3138 25.7768 11.5981 26.0091C11.6984 26.092 11.7486 26.0755 11.8155 25.9593C12.3004 24.997 12.7686 24.0347 13.2536 23.0724C13.9225 21.7284 14.6081 20.3679 15.277 19.024C15.9459 17.6635 16.6315 16.3195 17.3004 14.959C18.0195 13.5321 18.7385 12.1052 19.4409 10.6618C19.5579 10.4295 19.6582 10.2138 19.7753 9.9815C19.8255 9.9815 19.8422 9.9815 19.8589 9.9815Z" fill="white"/>
<path d="M9.37326 23.6033C9.50704 23.3544 9.62409 23.1221 9.75787 22.8732C10.6609 21.0813 11.5639 19.2894 12.4669 17.5141C13.2528 15.9545 14.0221 14.3949 14.808 12.8352C15.594 11.259 16.3966 9.68282 17.1826 8.09002C17.2662 7.9407 17.3498 7.77478 17.4167 7.62545C17.4836 7.47613 17.4501 7.40976 17.2829 7.44294C16.6642 7.5259 16.0287 7.57568 15.41 7.70841C13.788 8.05684 12.3666 8.78687 11.0957 9.83215C9.82476 10.8774 8.87159 12.1716 8.21942 13.6814C7.8348 14.5774 7.58397 15.5065 7.46691 16.4688C7.36658 17.4477 7.36658 18.4101 7.5338 19.389C7.75119 20.6831 8.20269 21.8777 8.87159 22.9894C8.97192 23.1719 9.08898 23.3378 9.20603 23.5037C9.23948 23.5535 9.2562 23.6033 9.27292 23.653C9.32309 23.6364 9.35654 23.6198 9.37326 23.6033Z" fill="white"/>
<path d="M24.3719 24.7979C23.887 23.7526 23.402 22.6908 22.9171 21.6289H16.0777C15.6763 22.4253 15.2583 23.2217 14.8736 24.0347C14.4389 24.9141 14.0375 25.81 13.6195 26.706C13.5024 26.9548 13.5359 26.988 13.7867 27.071C14.3218 27.2369 14.8402 27.436 15.392 27.5521C16.3954 27.7844 17.4154 27.8508 18.4522 27.7347C18.9205 27.6849 19.3887 27.6517 19.8402 27.5355C20.5091 27.353 21.178 27.1208 21.8301 26.8387C22.7499 26.4405 23.5525 25.8598 24.2883 25.2127C24.4054 25.0634 24.4555 24.9804 24.3719 24.7979Z" fill="white"/>
<path d="M22.0825 19.7874C21.7146 18.9578 21.33 18.1448 20.9621 17.3153C20.5775 16.4857 20.2096 15.6727 19.825 14.8431C19.7915 14.7601 19.7414 14.6772 19.6745 14.561C19.5073 14.8763 19.3735 15.1417 19.2397 15.4072C19.1059 15.6727 18.9721 15.9547 18.8216 16.2202C18.2196 17.4148 17.6176 18.6094 17.0156 19.7874H22.0825Z" fill="white"/>
</svg>
