<svg width="9" height="10" viewBox="0 0 9 10" fill="none" xmlns="http://www.w3.org/2000/svg">
<g clip-path="url(#clip0_1565_46016)">
<path d="M8.79822 8.10393L7.40832 6.71387C7.13147 6.43813 6.67301 6.44651 6.38653 6.7331L5.68628 7.43319C5.64204 7.40881 5.59625 7.38334 5.54811 7.35632C5.10591 7.1113 4.50069 6.77548 3.86383 6.13815C3.22507 5.49947 2.88894 4.89332 2.64317 4.45084C2.61724 4.40396 2.59239 4.35877 2.56785 4.31585L3.03782 3.84658L3.26887 3.61524C3.5558 3.32824 3.56371 2.86991 3.28751 2.59337L1.89761 1.20315C1.62141 0.927009 1.16274 0.935387 0.875815 1.22239L0.484091 1.61637L0.494796 1.62699C0.363446 1.79459 0.253686 1.9879 0.172005 2.19635C0.0967117 2.39477 0.0498342 2.58412 0.0283993 2.77385C-0.155129 4.29534 0.540148 5.68587 2.42704 7.57279C5.0353 10.1809 7.13721 9.98384 7.22789 9.97422C7.42538 9.95061 7.61465 9.90343 7.807 9.82873C8.01364 9.748 8.20681 9.6384 8.37431 9.50733L8.38287 9.51494L8.77971 9.12634C9.06604 8.83939 9.07429 8.3809 8.79822 8.10393Z" fill="white"/>
</g>
<defs>
<clipPath id="clip0_1565_46016">
<rect width="9" height="8.98907" fill="white" transform="translate(0 0.991211)"/>
</clipPath>
</defs>
</svg>
