<svg width="10" height="10" viewBox="0 0 10 10" fill="none" xmlns="http://www.w3.org/2000/svg">
<path d="M0.585938 5.30106V8.81668C0.585938 9.14012 0.849023 9.40262 1.17188 9.40262H4.10156V5.30106H0.585938Z" fill="white"/>
<path d="M8.78906 2.95747H6.93516C7.06816 2.86665 7.18242 2.77642 7.26211 2.69556C7.73496 2.22036 7.73496 1.44692 7.26211 0.971729C6.80273 0.508838 6.00234 0.51001 5.54355 0.971729C5.28926 1.22661 4.61543 2.26431 4.70859 2.95747H4.66641C4.75898 2.26431 4.08516 1.22661 3.83145 0.971729C3.37207 0.51001 2.57168 0.51001 2.11289 0.971729C1.64062 1.44692 1.64062 2.22036 2.1123 2.69556C2.19258 2.77642 2.30684 2.86665 2.43984 2.95747H0.585938C0.263086 2.95747 0 3.22056 0 3.54341V4.42231C0 4.58403 0.13125 4.71528 0.292969 4.71528H4.10156V3.54341H5.27344V4.71528H9.08203C9.24375 4.71528 9.375 4.58403 9.375 4.42231V3.54341C9.375 3.22056 9.1125 2.95747 8.78906 2.95747ZM4.06699 2.93813C4.06699 2.93813 4.04238 2.95747 3.95859 2.95747C3.55371 2.95747 2.78086 2.53677 2.52832 2.28247C2.28281 2.03521 2.28281 1.63208 2.52832 1.38481C2.64727 1.26528 2.80488 1.19966 2.97246 1.19966C3.13945 1.19966 3.29707 1.26528 3.41602 1.38481C3.81094 1.78208 4.20352 2.79692 4.06699 2.93813ZM5.41582 2.95747C5.33262 2.95747 5.30801 2.93872 5.30801 2.93813C5.17148 2.79692 5.56406 1.78208 5.95898 1.38481C6.19512 1.14634 6.6082 1.14517 6.84668 1.38481C7.09277 1.63208 7.09277 2.03521 6.84668 2.28247C6.59414 2.53677 5.82129 2.95747 5.41582 2.95747Z" fill="white"/>
<path d="M5.27344 5.30106V9.40262H8.20312C8.52656 9.40262 8.78906 9.14012 8.78906 8.81668V5.30106H5.27344Z" fill="white"/>
</svg>
