<svg width="13" height="17" viewBox="0 0 13 17" fill="none" xmlns="http://www.w3.org/2000/svg">
<path d="M7.96667 13.8145C7.96667 14.9283 8.86956 15.8312 9.98333 15.8312V15.8312C11.0971 15.8312 12 14.9283 12 13.8145V8.96518C12 7.8514 11.0971 6.94851 9.98333 6.94851V6.94851C8.86956 6.94851 7.96667 7.8514 7.96667 8.96518V13.8145Z" stroke="#737373" stroke-width="2" stroke-linecap="round" stroke-linejoin="round"/>
<path d="M1 13.8145C1 14.9283 1.90289 15.8312 3.01667 15.8312V15.8312C4.13044 15.8312 5.03333 14.9283 5.03333 13.8145V3.88935C5.03333 2.77557 4.13044 1.87268 3.01667 1.87268V1.87268C1.90289 1.87268 1 2.77557 1 3.88935V13.8145Z" stroke="#737373" stroke-width="2" stroke-linecap="round" stroke-linejoin="round"/>
</svg>
