<svg width="10" height="11" viewBox="0 0 10 11" fill="none" xmlns="http://www.w3.org/2000/svg">
<path d="M3.21484 0V0.917605H4.13245V1.3764C4.4536 1.33052 4.72888 1.33052 5.05005 1.3764V0.917605H5.96766V0H3.21484Z" fill="#262626"/>
<path d="M7.71149 3.02813L8.03264 2.70697L8.39968 3.07402L9.04201 2.43169L7.66561 1.0553L7.02329 1.69762L7.39033 2.06465L6.97741 2.47757C4.77518 1.14704 1.93062 1.83524 0.645988 4.03748C-0.638642 6.23971 0.0495347 8.99251 2.2059 10.323C4.36226 11.6536 7.2068 10.9654 8.49145 8.76312C9.63844 6.88204 9.31729 4.49629 7.71149 3.02813ZM4.59164 9.58896C2.80233 9.58896 1.38006 8.16669 1.38006 6.37737C1.38006 4.58806 2.80233 3.16577 4.59164 3.16577V6.37735H7.80323C7.80325 8.16667 6.38096 9.58896 4.59164 9.58896Z" fill="#262626"/>
</svg>
