<svg width="12" height="20" fill="none" xmlns="http://www.w3.org/2000/svg"><path d="M6 3.025c1.22 0 2.214.959 2.214 2.137S7.22 7.298 6 7.298 3.787 6.34 3.787 5.162c0-1.179.993-2.137 2.213-2.137zm0 7.297c2.949 0 5.347-2.314 5.347-5.16C11.347 2.315 8.949 0 6 0 3.05 0 .653 2.316.653 5.162S3.05 10.322 6 10.322zm2.163 4.21a10.21 10.21 0 003.105-1.24c.351-.214.6-.554.693-.945.092-.39.02-.801-.202-1.14a1.535 1.535 0 00-.42-.43 1.595 1.595 0 00-1.169-.257 1.6 1.6 0 00-.57.21 6.997 6.997 0 01-7.2 0 1.598 1.598 0 00-1.181-.194c-.201.044-.39.126-.558.241-.168.115-.31.261-.42.43a1.464 1.464 0 00-.202 1.14c.092.39.341.73.693.944.955.58 2.004 1 3.104 1.241l-2.99 2.886a1.486 1.486 0 00-.458 1.07c0 .4.165.785.46 1.07.293.283.692.442 1.107.442.416 0 .814-.16 1.108-.443l2.936-2.836 2.939 2.836c.145.14.318.252.508.328a1.612 1.612 0 001.706-.328c.145-.14.26-.307.34-.49a1.464 1.464 0 000-1.158 1.508 1.508 0 00-.34-.49l-2.989-2.887z" fill="#fff"/></svg>