<svg width="22" height="13" fill="none" xmlns="http://www.w3.org/2000/svg"><path fill-rule="evenodd" clip-rule="evenodd" d="M21.495.88c.153-.507 0-.88-.728-.88H18.36c-.611 0-.893.322-1.046.677 0 0-1.224 2.969-2.958 4.897-.561.558-.816.735-1.122.735-.153 0-.375-.177-.375-.684V.88c0-.609-.177-.88-.687-.88H8.389c-.382 0-.612.283-.612.55 0 .578.867.71.956 2.334v3.527c0 .773-.14.913-.446.913-.816 0-2.8-2.981-3.978-6.393C4.08.268 3.847 0 3.232 0H.825C.138 0 0 .322 0 .677c0 .635.816 3.78 3.8 7.941C5.787 11.46 8.59 13 11.14 13c1.53 0 1.72-.342 1.72-.931V9.92c0-.684.144-.82.629-.82.357 0 .968.177 2.397 1.547C17.517 12.27 17.786 13 18.704 13h2.407c.688 0 1.032-.342.833-1.017-.217-.673-.996-1.65-2.03-2.807-.56-.66-1.402-1.37-1.657-1.725-.357-.456-.255-.66 0-1.065 0 0 2.932-4.11 3.238-5.506z" fill="#fff"/></svg>