<svg width="24" height="23" viewBox="0 0 24 23" fill="none" xmlns="http://www.w3.org/2000/svg">
<path d="M9.00003 22C9.55232 22 10 21.5523 10 21C10 20.4477 9.55232 20 9.00003 20C8.44775 20 8.00003 20.4477 8.00003 21C8.00003 21.5523 8.44775 22 9.00003 22Z" stroke="#4B4B4B" stroke-width="2" stroke-linecap="round" stroke-linejoin="round"/>
<path d="M21 22C21.5523 22 22 21.5523 22 21C22 20.4477 21.5523 20 21 20C20.4477 20 20 20.4477 20 21C20 21.5523 20.4477 22 21 22Z" stroke="#4B4B4B" stroke-width="2" stroke-linecap="round" stroke-linejoin="round"/>
<path d="M1.00003 1H5.00003L7.68003 14.39C7.77147 14.8504 8.02194 15.264 8.38758 15.5583C8.75321 15.8526 9.21073 16.009 9.68003 16L20.4 14C20.4 14 21.1455 13.8545 21.5 13.5C22 13 22.4 12.39 22.4 12.39L23 5H5.80063" stroke="#4B4B4B" stroke-width="2" stroke-linecap="round" stroke-linejoin="round"/>
</svg>
