<svg width="480" height="100" viewBox="0 0 480 100" fill="none" xmlns="http://www.w3.org/2000/svg">
<path d="M265.658 85.6686C315.348 85.6686 480 47.5011 480 47.5011V0.457298H0.000244141V96.8273C0.000244141 96.8273 54.9312 66.0166 115.98 64.239C177.028 62.4614 215.967 85.6686 265.658 85.6686Z" fill="white" fill-opacity="0.25"/>
<path d="M320.086 60.6099C369.777 60.6099 480 100 480 100V0H0.000244141V96.5693C0.000244141 96.5693 20.8552 52.7319 90.014 75.7306C159.173 98.7294 270.395 60.6099 320.086 60.6099Z" fill="white" fill-opacity="0.25"/>
<path d="M327.451 86.4291C377.142 86.4291 480 54.6735 480 54.6735V0.076561H0.000244141V96.4465C0.000244141 96.4465 116.806 68.2593 177.854 66.4817C238.903 64.7041 277.76 86.4291 327.451 86.4291Z" fill="white"/>
</svg>
