<svg width="480" height="99" viewBox="0 0 480 99" fill="none" xmlns="http://www.w3.org/2000/svg">
<path d="M214.343 14.1105C164.652 14.1105 0 51.686 0 51.686V98H480V3.125C480 3.125 425.069 33.4577 364.02 35.2077C302.972 36.9577 264.033 14.1105 214.343 14.1105Z" fill="white" fill-opacity="0.25"/>
<path d="M159.914 38.7992C110.224 38.7992 0 0 0 0V98.5H480V3.37929C480 3.37929 459.145 46.5591 389.986 23.9053C320.827 1.25159 209.605 38.7992 159.914 38.7992Z" fill="white" fill-opacity="0.25"/>
<path d="M152.549 13.362C102.858 13.362 0 44.625 0 44.625V98.375H480V3.5C480 3.5 363.194 31.25 302.146 33C241.097 34.75 202.24 13.362 152.549 13.362Z" fill="white"/>
</svg>
