<svg width="22" height="22" viewBox="0 0 22 22" fill="none" xmlns="http://www.w3.org/2000/svg">
<path d="M21.3413 10.2921H13.8323C13.5425 8.90349 12.3305 7.86884 10.9078 7.86884C9.48503 7.86884 8.27305 8.90349 7.98323 10.2921H0.658683C0.28982 10.2921 0 10.5916 0 10.9728C0 11.354 0.28982 11.6535 0.658683 11.6535H7.98323C8.27305 13.0421 9.48503 14.0768 10.9078 14.0768C12.3305 14.0768 13.5425 13.0421 13.8323 11.6535H21.3413C21.7102 11.6535 22 11.354 22 10.9728C22 10.6188 21.6838 10.2921 21.3413 10.2921ZM10.9078 12.7154C9.98563 12.7154 9.22156 11.9258 9.22156 10.9728C9.22156 10.0198 9.98563 9.23022 10.9078 9.23022C11.8299 9.23022 12.594 10.0198 12.594 10.9728C12.594 11.9258 11.8299 12.7154 10.9078 12.7154Z" fill="black"/>
<path d="M3.03081 6.20793C4.45357 6.20793 5.66555 5.17327 5.95537 3.78466H21.3158C21.6847 3.78466 21.9745 3.48515 21.9745 3.10396C21.9745 2.72277 21.6847 2.42327 21.3158 2.42327H5.95537C5.66555 1.03465 4.45357 0 3.03081 0C1.37093 0 0.0272217 1.41584 0.0272217 3.10396C0.0272217 4.79208 1.37093 6.20793 3.03081 6.20793ZM3.03081 1.36139C3.95297 1.36139 4.71704 2.15099 4.71704 3.10396C4.71704 4.05693 3.95297 4.84654 3.03081 4.84654C2.10866 4.84654 1.34459 4.05693 1.34459 3.10396C1.34459 2.15099 2.10866 1.36139 3.03081 1.36139Z" fill="black"/>
<path d="M18.9701 15.7921C17.5473 15.7921 16.3617 16.8267 16.0455 18.1881H0.658683C0.28982 18.1881 0 18.4876 0 18.8688C0 19.25 0.28982 19.5495 0.658683 19.5495H16.0455C16.3353 20.9381 17.5473 22 18.9701 22C20.6299 22 21.9737 20.6114 21.9737 18.896C21.9737 17.1807 20.6036 15.7921 18.9701 15.7921ZM18.9701 20.6114C18.0479 20.6114 17.2838 19.8218 17.2838 18.8688C17.2838 17.9158 18.0479 17.1262 18.9701 17.1262C19.8922 17.1262 20.6563 17.9158 20.6563 18.8688C20.6563 19.8218 19.8922 20.6114 18.9701 20.6114Z" fill="black"/>
</svg>
