<svg width="40" height="40" fill="none" xmlns="http://www.w3.org/2000/svg"><rect opacity=".5" width="40" height="40" rx="20" fill="#333"/><path d="M20 13.025c1.22 0 2.214.959 2.214 2.137S21.22 17.298 20 17.298s-2.213-.958-2.213-2.136c0-1.179.993-2.137 2.213-2.137zm0 7.297c2.949 0 5.347-2.314 5.347-5.16C25.347 12.315 22.949 10 20 10c-2.949 0-5.347 2.316-5.347 5.162s2.398 5.16 5.347 5.16zm2.163 4.21a10.21 10.21 0 003.105-1.24c.351-.214.6-.554.693-.945.092-.39.02-.801-.202-1.14a1.535 1.535 0 00-.42-.43 1.595 1.595 0 00-1.169-.257 1.602 1.602 0 00-.57.21 6.997 6.997 0 01-7.2 0 1.598 1.598 0 00-1.181-.194c-.201.044-.39.126-.558.241-.168.115-.31.261-.42.43a1.468 1.468 0 00-.202 1.14c.092.39.341.73.693.944.955.58 2.004 1 3.104 1.241l-2.99 2.886a1.486 1.486 0 00-.458 1.07c0 .4.165.785.46 1.07.293.283.692.442 1.107.442a1.6 1.6 0 001.108-.443l2.936-2.836 2.939 2.836c.145.14.318.252.508.328a1.612 1.612 0 001.706-.328c.145-.14.26-.307.34-.49a1.464 1.464 0 000-1.158 1.508 1.508 0 00-.34-.49l-2.989-2.887z" fill="#fff"/></svg>