<svg width="567" height="184" fill="none" xmlns="http://www.w3.org/2000/svg"><g filter="url(#filter0_f)"><path d="M120.325 62.03C80.862 64.106 60 76.307 60 89.382c0 15.922 2.874 28.168 29.032 33.253 20.223 3.914 155.004-2.002 218.017-1.838 84.833.222 141.965 2.638 159.235 3.172 49.362 1.557 60.246-56.172-3.459-60.59-58.516-4.076-284.25-4.388-342.5-1.349z" fill="#CF9898" fill-opacity=".39"/></g><g filter="url(#filter1_f)"><path d="M91.122 75.412C44.596 75.834 20 78.312 20 80.968c0 3.234 3.388 5.722 34.227 6.755 23.844.795 182.746-.407 257.036-.374 100.016.045 167.373.536 187.734.645 58.196.316 71.028-11.41-4.078-12.308-68.989-.828-335.123-.89-403.797-.274z" fill="#CF9898" fill-opacity=".53"/></g><defs><filter id="filter0_f" x="0" y="0" width="567" height="184" filterUnits="userSpaceOnUse" color-interpolation-filters="sRGB"><feFlood flood-opacity="0" result="BackgroundImageFix"/><feBlend in="SourceGraphic" in2="BackgroundImageFix" result="shape"/><feGaussianBlur stdDeviation="30" result="effect1_foregroundBlur"/></filter><filter id="filter1_f" x="0" y="55" width="567" height="53" filterUnits="userSpaceOnUse" color-interpolation-filters="sRGB"><feFlood flood-opacity="0" result="BackgroundImageFix"/><feBlend in="SourceGraphic" in2="BackgroundImageFix" result="shape"/><feGaussianBlur stdDeviation="10" result="effect1_foregroundBlur"/></filter></defs></svg>