<svg width="24" height="24" viewBox="0 0 24 24" fill="none" xmlns="http://www.w3.org/2000/svg">
<path fill-rule="evenodd" clip-rule="evenodd" d="M19 13H7.135L11.768 17.36C12.122 17.784 12.064 18.415 11.64 18.768C11.215 19.122 10.585 19.064 10.231 18.64L4.231 12.64C4.192 12.593 4.173 12.538 4.144 12.486C4.12 12.444 4.091 12.408 4.073 12.362C4.028 12.247 4.001 12.126 4.001 12.004L4 12L4.001 11.996C4.001 11.874 4.028 11.753 4.073 11.638C4.091 11.592 4.12 11.556 4.144 11.514C4.173 11.462 4.192 11.407 4.231 11.36L10.231 5.36C10.43 5.123 10.714 5 11 5C11.226 5 11.453 5.076 11.64 5.232C12.064 5.585 12.122 6.216 11.768 6.64L7.135 11H19C19.552 11 20 11.448 20 12C20 12.552 19.552 13 19 13Z" fill="#4B4B4B"/>
</svg>
