<svg width="24" height="16" viewBox="0 0 24 16" fill="none" xmlns="http://www.w3.org/2000/svg">
<path d="M23.6164 2.09666L22.8302 1.30504C22.5828 1.05782 22.2536 0.921622 21.9018 0.921622C21.5502 0.921622 21.2207 1.05782 20.9732 1.30504L12.0054 10.2733L3.02715 1.29509C2.78012 1.04787 2.45056 0.911865 2.09894 0.911865C1.74733 0.911865 1.41757 1.04787 1.17035 1.29509L0.384003 2.08183C-0.128001 2.59344 -0.128001 3.42681 0.384003 3.93843L11.0737 14.6665C11.3207 14.9135 11.6499 15.0876 12.0046 15.0876H12.0087C12.3605 15.0876 12.6897 14.9133 12.9367 14.6665L23.6164 3.9675C23.8638 3.72047 23.9996 3.38135 24 3.02974C24 2.67793 23.8638 2.34349 23.6164 2.09666Z" fill="#55B570"/>
</svg>
