<svg width="20" height="20" viewBox="0 0 20 20" fill="none" xmlns="http://www.w3.org/2000/svg">
<g clip-path="url(#clip0)">
<path d="M10.553 19.7709C10.5532 19.7706 10.5535 19.7704 10.5538 19.7702L14.6163 15.688C14.9206 15.3821 14.9195 14.8875 14.6136 14.5831C14.3078 14.2787 13.8131 14.2799 13.5088 14.5857L10.7813 17.3265L10.7813 0.78125C10.7813 0.349765 10.4315 -1.92866e-07 10 -2.11727e-07C9.56852 -2.30588e-07 9.21875 0.349765 9.21875 0.78125L9.21875 17.3264L6.49125 14.5857C6.18688 14.2799 5.69223 14.2788 5.38641 14.5831C5.08051 14.8875 5.07945 15.3822 5.38375 15.688L9.44625 19.7702C9.44649 19.7704 9.44676 19.7706 9.44699 19.7709C9.75238 20.0769 10.2486 20.0759 10.553 19.7709Z" fill="white"/>
</g>
<defs>
<clipPath id="clip0">
<rect width="20" height="20" fill="white" transform="translate(20) rotate(90)"/>
</clipPath>
</defs>
</svg>
