<svg width="12" height="20" viewBox="0 0 12 20" fill="none" xmlns="http://www.w3.org/2000/svg">
<path d="M5.99985 3.0251C7.22067 3.0251 8.2137 3.98373 8.2137 5.16224C8.2137 6.33977 7.22041 7.29839 5.99985 7.29839C4.77981 7.29839 3.78652 6.33977 3.78652 5.16224C3.78626 3.98348 4.78006 3.0251 5.99985 3.0251ZM5.99985 10.322C8.94875 10.322 11.3469 8.00773 11.3469 5.16224C11.3469 2.31528 8.94901 0 5.99985 0C3.05121 0 0.652834 2.31552 0.652834 5.16224C0.652834 8.00773 3.05121 10.322 5.99985 10.322ZM8.16303 14.5323C9.26299 14.2905 10.3127 13.8709 11.2678 13.2913C11.6194 13.0777 11.8687 12.7381 11.9609 12.3471C12.0531 11.9561 11.9807 11.5457 11.7594 11.2063C11.65 11.038 11.5073 10.8923 11.3395 10.7773C11.1717 10.6624 10.9821 10.5805 10.7815 10.5363C10.5809 10.4922 10.3732 10.4866 10.1703 10.52C9.9675 10.5534 9.77347 10.6251 9.59934 10.7309C7.40878 12.0604 4.58939 12.0594 2.40062 10.7309C2.22653 10.625 2.03251 10.5534 1.82969 10.52C1.62686 10.4865 1.4192 10.4921 1.21859 10.5362C1.01798 10.5804 0.828355 10.6623 0.660571 10.7773C0.492787 10.8922 0.350134 11.038 0.240776 11.2063C0.019496 11.5456 -0.0530988 11.9559 0.0389576 12.3469C0.131014 12.7379 0.380182 13.0776 0.731662 13.2913C1.68668 13.8707 2.73618 14.2902 3.83591 14.5323L0.846833 17.4183C0.553089 17.702 0.388106 18.0867 0.388178 18.4878C0.38825 18.8888 0.553371 19.2735 0.847217 19.5571C1.14106 19.8406 1.53956 19.9999 1.95505 19.9998C2.37054 19.9997 2.76899 19.8403 3.06273 19.5567L5.99934 16.7213L8.93775 19.5569C9.08303 19.6974 9.25558 19.8088 9.44552 19.8848C9.63545 19.9609 9.83905 20 10.0447 20C10.2503 20 10.4539 19.9609 10.6438 19.8848C10.8338 19.8088 11.0063 19.6974 11.1516 19.5569C11.2973 19.4167 11.4129 19.2501 11.4918 19.0666C11.5707 18.8832 11.6113 18.6865 11.6113 18.4879C11.6113 18.2892 11.5707 18.0926 11.4918 17.9091C11.4129 17.7257 11.2973 17.559 11.1516 17.4188L8.16303 14.5323Z" fill="white"/>
</svg>
