<svg width="40" height="40" fill="none" xmlns="http://www.w3.org/2000/svg"><rect opacity=".5" width="40" height="40" rx="20" fill="#333"/><path d="M16.667 20a3.333 3.333 0 116.667 0 3.333 3.333 0 01-6.667 0zm-1.802 0a5.135 5.135 0 1010.27 0 5.135 5.135 0 00-10.27 0zm9.274-5.338a1.2 1.2 0 101.2-1.2 1.2 1.2 0 00-1.2 1.2zM15.96 28.14c-.975-.045-1.505-.207-1.857-.344a3.11 3.11 0 01-1.15-.748 3.085 3.085 0 01-.748-1.15c-.137-.352-.3-.882-.344-1.857-.049-1.054-.058-1.37-.058-4.04 0-2.671.01-2.987.058-4.042.044-.975.208-1.504.344-1.857.181-.467.398-.8.748-1.15.35-.35.682-.567 1.15-.748.352-.138.882-.3 1.857-.344 1.054-.049 1.371-.059 4.04-.059 2.67 0 2.987.01 4.042.059.975.044 1.504.208 1.857.344.467.18.8.398 1.15.748.35.35.566.683.748 1.15.137.352.3.882.344 1.857.049 1.055.058 1.37.058 4.041 0 2.67-.01 2.986-.058 4.041-.044.975-.207 1.505-.344 1.857a3.1 3.1 0 01-.748 1.15c-.35.35-.683.566-1.15.748-.352.137-.882.3-1.857.344-1.054.048-1.371.058-4.042.058-2.67 0-2.986-.01-4.04-.058zm-.083-18.08c-1.064.049-1.792.218-2.427.465a4.906 4.906 0 00-1.771 1.153 4.886 4.886 0 00-1.154 1.772c-.247.636-.416 1.363-.465 2.427C10.011 16.943 10 17.284 10 20s.011 3.057.06 4.123c.049 1.064.218 1.791.465 2.427a4.888 4.888 0 001.153 1.771 4.917 4.917 0 001.772 1.154c.636.247 1.363.416 2.427.464 1.067.049 1.408.061 4.123.061 2.716 0 3.057-.011 4.123-.06 1.065-.049 1.792-.218 2.428-.465a4.917 4.917 0 001.771-1.154 4.899 4.899 0 001.154-1.77c.247-.637.416-1.364.464-2.428.049-1.067.06-1.407.06-4.123s-.011-3.057-.06-4.123c-.048-1.064-.217-1.792-.464-2.427a4.917 4.917 0 00-1.154-1.771 4.893 4.893 0 00-1.77-1.154c-.637-.247-1.364-.417-2.428-.464-1.066-.049-1.407-.061-4.123-.061s-3.057.011-4.124.06z" fill="#fff"/></svg>