<svg width="40" height="40" fill="none" xmlns="http://www.w3.org/2000/svg"><rect width="40" height="40" rx="20" fill="#393C42"/><path fill-rule="evenodd" clip-rule="evenodd" d="M30.495 14.88c.153-.507 0-.88-.728-.88H27.36c-.611 0-.893.322-1.046.677 0 0-1.224 2.969-2.958 4.897-.561.558-.816.735-1.122.735-.153 0-.375-.177-.375-.684V14.88c0-.609-.177-.88-.687-.88H17.39c-.383 0-.613.283-.613.55 0 .578.867.71.956 2.334v3.527c0 .773-.14.913-.446.913-.816 0-2.8-2.981-3.978-6.393-.23-.663-.462-.931-1.077-.931H9.825c-.687 0-.825.322-.825.677 0 .635.816 3.78 3.8 7.941C14.787 25.46 17.59 27 20.14 27c1.53 0 1.72-.342 1.72-.931V23.92c0-.684.144-.82.628-.82.358 0 .97.177 2.398 1.547C26.517 26.27 26.786 27 27.704 27h2.407c.688 0 1.032-.342.833-1.017-.217-.673-.996-1.65-2.03-2.806-.56-.66-1.402-1.37-1.657-1.726-.357-.457-.255-.66 0-1.065 0 0 2.932-4.11 3.238-5.506z" fill="#fff"/></svg>