<svg width="40" height="40" fill="none" xmlns="http://www.w3.org/2000/svg"><rect opacity=".5" width="40" height="40" rx="20" fill="#333"/><path fill-rule="evenodd" clip-rule="evenodd" d="M29.054 12.482a2.82 2.82 0 011.983 1.983c.482 1.76.464 5.43.464 5.43s0 3.652-.464 5.413a2.82 2.82 0 01-1.983 1.983c-1.76.463-8.804.463-8.804.463s-7.024 0-8.803-.482a2.82 2.82 0 01-1.984-1.983C9 23.547 9 19.877 9 19.877s0-3.651.463-5.412a2.877 2.877 0 011.984-2.002C13.207 12 20.25 12 20.25 12s7.043 0 8.804.482zm-5.19 7.395l-5.856 3.373v-6.746l5.857 3.373z" fill="#fff"/></svg>