<svg width="12" height="12" viewBox="0 0 12 12" fill="none" xmlns="http://www.w3.org/2000/svg">
<g clip-path="url(#clip0_518_213)">
<path d="M11.997 11.9982V11.9977H12V7.59666C12 5.44366 11.5365 3.78516 9.01951 3.78516C7.80951 3.78516 6.99751 4.44916 6.66601 5.07866H6.63101V3.98616H4.24451V11.9977H6.72951V8.03066C6.72951 6.98616 6.92751 5.97616 8.22101 5.97616C9.49551 5.97616 9.51451 7.16816 9.51451 8.09766V11.9982H11.997Z" fill="white"/>
<path d="M0.197998 3.98828H2.686V11.9998H0.197998V3.98828Z" fill="white"/>
<path d="M1.441 0C0.6455 0 0 0.6455 0 1.441C0 2.2365 0.6455 2.8955 1.441 2.8955C2.2365 2.8955 2.882 2.2365 2.882 1.441C2.8815 0.6455 2.236 0 1.441 0V0Z" fill="white"/>
</g>
<defs>
<clipPath id="clip0_518_213">
<rect width="12" height="12" fill="white"/>
</clipPath>
</defs>
</svg>
