<svg width="11" height="11" viewBox="0 0 11 11" fill="none" xmlns="http://www.w3.org/2000/svg">
<g clip-path="url(#clip0_518_231)">
<path d="M10.1173 7.22024C9.44384 7.22024 8.78258 7.11491 8.15595 6.90783C7.8489 6.8031 7.47143 6.89918 7.28403 7.09165L6.04719 8.02533C4.61281 7.25966 3.72925 6.37639 2.97404 4.95278L3.88025 3.74816C4.11569 3.51304 4.20013 3.16958 4.09896 2.84731C3.89099 2.21739 3.78534 1.55644 3.78534 0.882693C3.78537 0.395971 3.3894 0 2.90271 0H0.882603C0.39591 0 -6.10352e-05 0.395971 -6.10352e-05 0.882664C-6.10352e-05 6.46144 4.53853 11 10.1173 11C10.604 11 11 10.604 11 10.1173V8.10288C10.9999 7.61621 10.604 7.22024 10.1173 7.22024Z" fill="#FEAD04"/>
</g>
<defs>
<clipPath id="clip0_518_231">
<rect width="11" height="11" fill="white"/>
</clipPath>
</defs>
</svg>
