<svg width="14" height="10" viewBox="0 0 14 10" fill="none" xmlns="http://www.w3.org/2000/svg">
<path d="M13.2852 1.7192C13.134 1.15692 12.6906 0.713676 12.1284 0.562271C11.1014 0.28125 6.993 0.28125 6.993 0.28125C6.993 0.28125 2.88479 0.28125 1.85772 0.551617C1.30633 0.702862 0.852196 1.157 0.700951 1.7192C0.430664 2.74619 0.430664 4.87604 0.430664 4.87604C0.430664 4.87604 0.430664 7.01662 0.700951 8.03288C0.852356 8.59508 1.29552 9.03832 1.8578 9.18973C2.89561 9.47083 6.99316 9.47083 6.99316 9.47083C6.99316 9.47083 11.1014 9.47083 12.1284 9.20046C12.6907 9.04914 13.134 8.6059 13.2854 8.0437C13.5556 7.01662 13.5556 4.88686 13.5556 4.88686C13.5556 4.88686 13.5664 2.74619 13.2852 1.7192ZM5.68499 6.84367V2.90841L9.1013 4.87604L5.68499 6.84367Z" fill="white"/>
</svg>
