<svg width="22" height="22" viewBox="0 0 22 22" fill="none" xmlns="http://www.w3.org/2000/svg">
<path d="M11.0797 11.8542C11.0569 11.8542 11.0342 11.8542 11.0068 11.8542C10.9977 11.8542 10.9886 11.8542 10.9795 11.8542C10.9658 11.8542 10.9476 11.8542 10.9339 11.8542C9.59908 11.8314 8.51936 11.3622 7.72209 10.4647C5.9681 8.48747 6.25968 5.09795 6.29157 4.77449C6.40546 2.34624 7.55353 1.18451 8.50113 0.642369C9.20728 0.236902 10.0319 0.0182232 10.9522 0H10.9841C10.9886 0 10.9977 0 11.0023 0H11.0296C11.5353 0 12.5285 0.0820046 13.4806 0.624146C14.4374 1.16629 15.6036 2.32802 15.7175 4.77449C15.7494 5.09795 16.041 8.48747 14.287 10.4647C13.4943 11.3622 12.4146 11.8314 11.0797 11.8542ZM14.5011 4.88838C14.5011 4.87472 14.4966 4.86105 14.4966 4.85194C14.3462 1.58542 12.0273 1.23462 11.0342 1.23462H11.0159C11.0068 1.23462 10.9932 1.23462 10.9795 1.23462C9.74943 1.26196 7.65831 1.7631 7.51708 4.85194C7.51708 4.8656 7.51708 4.87927 7.51252 4.88838C7.50797 4.92027 7.18906 8.01822 8.63781 9.6492C9.21184 10.2961 9.97722 10.615 10.9841 10.6241C10.9932 10.6241 10.9977 10.6241 11.0068 10.6241C11.0159 10.6241 11.0205 10.6241 11.0296 10.6241C12.0319 10.615 12.8018 10.2961 13.3713 9.6492C14.8155 8.02734 14.5057 4.91572 14.5011 4.88838Z" fill="#046EE3"/>
<path d="M1.64462 17.4761C1.64462 17.4715 1.64462 17.467 1.64462 17.4624C1.64462 17.426 1.64918 17.3895 1.64918 17.3485C1.67651 16.4465 1.73574 14.3371 3.71296 13.6629C3.72663 13.6583 3.74485 13.6537 3.75852 13.6492C5.81319 13.1253 7.52161 11.9408 7.53984 11.9271C7.81774 11.7312 8.20043 11.7995 8.39633 12.0774C8.59223 12.3553 8.52389 12.738 8.24599 12.9339C8.16854 12.9886 6.35533 14.2506 4.08653 14.8337C3.02503 15.2118 2.90658 16.3462 2.87469 17.385C2.87469 17.426 2.87469 17.4624 2.87013 17.4989C2.86558 17.9089 2.89291 18.5421 2.96581 18.9066C3.70385 19.3257 6.59679 20.7745 10.9977 20.7745C15.3804 20.7745 18.2915 19.3212 19.0341 18.902C19.107 18.5376 19.1389 17.9043 19.1298 17.4943C19.1298 17.4579 19.1253 17.4214 19.1253 17.3804C19.0934 16.3417 18.9749 15.2073 17.9134 14.8291C15.6446 14.246 13.8314 12.9795 13.754 12.9294C13.4761 12.7335 13.4077 12.3508 13.6036 12.0729C13.7995 11.795 14.1822 11.7266 14.4601 11.9225C14.4783 11.9362 16.1777 13.1207 18.2414 13.6446C18.2597 13.6492 18.2733 13.6537 18.287 13.6583C20.2642 14.3371 20.3234 16.4465 20.3508 17.344C20.3508 17.385 20.3508 17.4214 20.3553 17.4579C20.3553 17.4624 20.3553 17.467 20.3553 17.4715C20.3599 17.7084 20.3644 18.9248 20.123 19.5353C20.0774 19.6538 19.9954 19.754 19.8861 19.8223C19.7494 19.9134 16.4738 22 10.9931 22C5.5125 22 2.23688 19.9089 2.1002 19.8223C1.99542 19.754 1.90886 19.6538 1.8633 19.5353C1.63551 18.9294 1.64007 17.713 1.64462 17.4761Z" fill="#046EE3"/>
</svg>
