<svg width="17" height="17" viewBox="0 0 17 17" fill="none" xmlns="http://www.w3.org/2000/svg">
<path d="M8.56162 9.16008C8.54402 9.16008 8.52641 9.16008 8.50529 9.16008C8.49825 9.16008 8.49121 9.16008 8.48417 9.16008C8.47361 9.16008 8.45953 9.16008 8.44897 9.16008C7.41749 9.14247 6.58315 8.77987 5.96708 8.08635C4.61173 6.5585 4.83704 3.93933 4.86168 3.68938C4.94969 1.813 5.83683 0.915303 6.56907 0.496376C7.11474 0.183061 7.75193 0.0140816 8.46305 0H8.48769C8.49121 0 8.49825 0 8.50177 0H8.52289C8.91366 0 9.68111 0.0633672 10.4169 0.482294C11.1562 0.901222 12.0574 1.79892 12.1454 3.68938C12.17 3.93933 12.3953 6.5585 11.04 8.08635C10.4274 8.77987 9.5931 9.14247 8.56162 9.16008ZM11.2054 3.77739C11.2054 3.76683 11.2019 3.75626 11.2019 3.74922C11.0857 1.2251 9.29386 0.954028 8.52641 0.954028H8.51233C8.50529 0.954028 8.49473 0.954028 8.48417 0.954028C7.53366 0.97515 5.9178 1.36239 5.80867 3.74922C5.80867 3.75978 5.80867 3.77035 5.80515 3.77739C5.80163 3.80203 5.5552 6.1959 6.67469 7.4562C7.11826 7.9561 7.70968 8.20253 8.48769 8.20957C8.49473 8.20957 8.49825 8.20957 8.50529 8.20957C8.51233 8.20957 8.51585 8.20957 8.52289 8.20957C9.29738 8.20253 9.89233 7.9561 10.3324 7.4562C11.4483 6.20294 11.209 3.79851 11.2054 3.77739Z" fill="#046EE3"/>
<path d="M1.27087 13.5042C1.27087 13.5007 1.27087 13.4972 1.27087 13.4937C1.27087 13.4655 1.27439 13.4373 1.27439 13.4057C1.29551 12.7086 1.34128 11.0787 2.86913 10.5577C2.87969 10.5541 2.89377 10.5506 2.90434 10.5471C4.49203 10.1422 5.81218 9.22694 5.82627 9.21638C6.04101 9.065 6.33672 9.11781 6.4881 9.33255C6.63948 9.5473 6.58667 9.84301 6.37193 9.99439C6.31208 10.0366 4.91096 11.0118 3.1578 11.4624C2.33755 11.7546 2.24602 12.6312 2.22138 13.4338C2.22138 13.4655 2.22138 13.4937 2.21786 13.5218C2.21434 13.8387 2.23546 14.328 2.29179 14.6096C2.86209 14.9335 5.09754 16.053 8.49825 16.053C11.8849 16.053 14.1344 14.93 14.7082 14.6061C14.7646 14.3245 14.7892 13.8351 14.7822 13.5183C14.7822 13.4901 14.7786 13.462 14.7786 13.4303C14.754 12.6276 14.6625 11.7511 13.8422 11.4589C12.0891 11.0083 10.6879 10.0296 10.6281 9.99087C10.4133 9.83949 10.3605 9.54378 10.5119 9.32903C10.6633 9.11429 10.959 9.06148 11.1737 9.21286C11.1878 9.22342 12.5009 10.1387 14.0957 10.5436C14.1098 10.5471 14.1203 10.5506 14.1309 10.5541C15.6587 11.0787 15.7045 12.7086 15.7256 13.4021C15.7256 13.4338 15.7256 13.462 15.7291 13.4901C15.7291 13.4937 15.7291 13.4972 15.7291 13.5007C15.7327 13.6838 15.7362 14.6237 15.5496 15.0954C15.5144 15.187 15.451 15.2644 15.3665 15.3172C15.2609 15.3876 12.7298 17 8.49473 17C4.25969 17 1.72852 15.3841 1.62291 15.3172C1.54194 15.2644 1.47505 15.187 1.43985 15.0954C1.26383 14.6272 1.26735 13.6873 1.27087 13.5042Z" fill="#046EE3"/>
</svg>
