<svg width="1310" height="548" viewBox="0 0 1310 548" fill="none" xmlns="http://www.w3.org/2000/svg">
<circle r="3" transform="matrix(-1 0 0 1 535 150)" fill="white"/>
<circle r="3" transform="matrix(-1 0 0 1 323 177)" fill="white"/>
<circle r="3" transform="matrix(-1 0 0 1 111 204)" fill="white"/>
<circle r="3" transform="matrix(-1 0 0 1 3 97)" fill="white"/>
<circle r="3" transform="matrix(-1 0 0 1 195 55)" fill="white"/>
<circle r="3" transform="matrix(-1 0 0 1 387 13)" fill="white"/>
<circle r="3" transform="matrix(-1 0 0 1 9 171)" fill="white"/>
<circle r="3" transform="matrix(-1 0 0 1 111 326)" fill="white"/>
<circle r="3" transform="matrix(-1 0 0 1 213 481)" fill="white"/>
<circle r="3" transform="matrix(-1 0 0 1 295 299)" fill="white"/>
<circle r="3" transform="matrix(-1 0 0 1 25 433)" fill="white"/>
<circle r="3" transform="matrix(-1 0 0 1 602 61)" fill="white"/>
<circle r="3" transform="matrix(-1 0 0 1 1100 320)" fill="white"/>
<circle r="3" transform="matrix(-1 0 0 1 1307 465)" fill="white"/>
<circle r="3" transform="matrix(-1 0 0 1 1258 304)" fill="white"/>
<circle r="3" transform="matrix(-1 0 0 1 1304 156)" fill="white"/>
<circle r="3" transform="matrix(-1 0 0 1 1125 78)" fill="white"/>
<circle r="3" transform="matrix(-1 0 0 1 946 3)" fill="white"/>
<circle r="3" transform="matrix(-1 0 0 1 908 124)" fill="white"/>
<circle r="2" transform="matrix(-1 0 0 1 1260 223)" fill="white"/>
<circle r="2" transform="matrix(-1 0 0 1 1228 73)" fill="white"/>
<circle r="2" transform="matrix(-1 0 0 1 1014 152)" fill="white"/>
<circle r="2" transform="matrix(-1 0 0 1 800 21)" fill="white"/>
<circle r="2" transform="matrix(-1 0 0 1 699 16)" fill="white"/>
<circle r="2" transform="matrix(-1 0 0 1 424 107)" fill="white"/>
<circle r="2" transform="matrix(-1 0 0 1 149 198)" fill="white"/>
<circle r="2" transform="matrix(-1 0 0 1 56 96)" fill="white"/>
<circle r="2" transform="matrix(-1 0 0 1 30 321)" fill="white"/>
<circle r="2" transform="matrix(-1 0 0 1 4 546)" fill="white"/>
<circle r="2" transform="matrix(-1 0 0 1 453 332)" fill="white"/>
<circle r="2" transform="matrix(-1 0 0 1 724 331)" fill="white"/>
<line y1="-0.25" x2="82.6801" y2="-0.25" transform="matrix(-0.532754 0.84627 0.847002 0.53159 1304 153)" stroke="white" stroke-opacity="0.5" stroke-width="0.5"/>
<line y1="-0.25" x2="81.0249" y2="-0.25" transform="matrix(-0.0246838 0.999695 0.999695 0.0246838 1260 223)" stroke="white" stroke-opacity="0.5" stroke-width="0.5"/>
<line y1="-0.25" x2="109.636" y2="-0.25" transform="matrix(-0.966838 -0.255391 -0.255391 0.966838 1014 152)" stroke="white" stroke-opacity="0.5" stroke-width="0.5"/>
<line y1="-0.25" x2="38.4708" y2="-0.25" transform="matrix(-0.987763 0.155963 0.155963 0.987763 149 198)" stroke="white" stroke-opacity="0.5" stroke-width="0.5"/>
<line y1="-0.25" x2="107.205" y2="-0.25" transform="matrix(-0.951445 -0.30782 -0.30782 0.951445 111 204)" stroke="white" stroke-opacity="0.5" stroke-width="0.5"/>
<line y1="-0.25" x2="53.0094" y2="-0.25" transform="matrix(-0.999822 0.0188646 0.0188646 0.999822 56 96)" stroke="white" stroke-opacity="0.5" stroke-width="0.5"/>
<line y1="-0.25" x2="81.1542" y2="-0.25" transform="matrix(-0.9981 -0.0616111 -0.0616111 0.9981 111 326)" stroke="white" stroke-opacity="0.5" stroke-width="0.5"/>
<line y1="-0.25" x2="137.277" y2="-0.25" transform="matrix(-0.62647 0.779445 0.779445 0.62647 111 326)" stroke="white" stroke-opacity="0.5" stroke-width="0.5"/>
<line y1="-0.25" x2="112.112" y2="-0.25" transform="matrix(-0.0445984 0.999005 0.999005 0.0445984 30 321)" stroke="white" stroke-opacity="0.5" stroke-width="0.5"/>
<line y1="-0.25" x2="111.4" y2="-0.25" transform="matrix(-0.601435 0.798922 0.798922 0.601435 602 61)" stroke="white" stroke-opacity="0.5" stroke-width="0.5"/>
<line y1="-0.25" x2="119.038" y2="-0.25" transform="matrix(-0.932477 -0.36123 -0.36123 0.932477 535 150)" stroke="white" stroke-opacity="0.5" stroke-width="0.5"/>
<line y1="-0.25" x2="103.121" y2="-0.25" transform="matrix(-0.998824 0.0484866 0.0484866 0.998824 1228 73)" stroke="white" stroke-opacity="0.5" stroke-width="0.5"/>
</svg>
