<svg width="1920" height="394" viewBox="0 0 1920 394" fill="none" xmlns="http://www.w3.org/2000/svg">
<path d="M1062.63 337.535C1261.39 337.535 1920 187.155 1920 187.155V1.80231H0.000976562V381.5C0.000976562 381.5 219.725 260.106 463.919 253.102C708.114 246.099 863.867 337.535 1062.63 337.535Z" fill="white" fill-opacity="0.25"/>
<path d="M1280.34 238.803C1479.11 238.803 1920 394 1920 394V0H0.000976562V380.483C0.000976562 380.483 83.4207 207.764 360.056 298.379C636.692 388.994 1081.58 238.803 1280.34 238.803Z" fill="white" fill-opacity="0.25"/>
<path d="M1309.8 340.531C1508.57 340.531 1920 215.414 1920 215.414V0.302307H0V380C0 380 467.222 268.942 711.417 261.939C955.612 254.935 1111.04 340.531 1309.8 340.531Z" fill="white"/>
</svg>
