<svg viewBox="0 0 1920 394" fill="none" xmlns="http://www.w3.org/2000/svg">
<path d="M857.37 56.465C658.607 56.465 0 206.845 0 206.845V392.198H1920V12.5C1920 12.5 1700.28 133.894 1456.08 140.898C1211.89 147.901 1056.13 56.465 857.37 56.465Z" fill="white" fill-opacity="0.25"/>
<path d="M639.657 155.197C440.894 155.197 0 0 0 0V394H1920V13.5172C1920 13.5172 1836.58 186.236 1559.94 95.6213C1283.31 5.00636 838.42 155.197 639.657 155.197Z" fill="white" fill-opacity="0.25"/>
<path d="M609.878 53.448C411.219 53.448 0 178.5 0 178.5V393.5H1919V14C1919 14 1452.02 125 1207.95 132C963.886 139 808.538 53.448 609.878 53.448Z" fill="white"/>
</svg>
