<svg width="24" height="24" fill="none" xmlns="http://www.w3.org/2000/svg"><path d="M9 15l6-6" stroke="#E94F1D" stroke-width="1.5" stroke-linecap="round" stroke-linejoin="round"/><path d="M9 15l6-6" stroke="#FC5824" stroke-width="1.5" stroke-linecap="round" stroke-linejoin="round"/><path d="M9 15l6-6" stroke="#E7351D" stroke-width="1.5" stroke-linecap="round" stroke-linejoin="round"/><path d="M9.5 10a.5.5 0 100-1 .5.5 0 000 1z" fill="#E94F1D"/><path d="M9.5 10a.5.5 0 100-1 .5.5 0 000 1z" fill="#FC5824"/><path d="M9.5 10a.5.5 0 100-1 .5.5 0 000 1z" fill="#E7351D"/><path d="M9.5 10a.5.5 0 100-1 .5.5 0 000 1z" stroke="#E94F1D" stroke-width="1.5" stroke-linecap="round" stroke-linejoin="round"/><path d="M9.5 10a.5.5 0 100-1 .5.5 0 000 1z" stroke="#FC5824" stroke-width="1.5" stroke-linecap="round" stroke-linejoin="round"/><path d="M9.5 10a.5.5 0 100-1 .5.5 0 000 1z" stroke="#E7351D" stroke-width="1.5" stroke-linecap="round" stroke-linejoin="round"/><path d="M14.5 15a.5.5 0 100-1 .5.5 0 000 1z" fill="#E94F1D"/><path d="M14.5 15a.5.5 0 100-1 .5.5 0 000 1z" fill="#FC5824"/><path d="M14.5 15a.5.5 0 100-1 .5.5 0 000 1z" fill="#E7351D"/><path d="M14.5 15a.5.5 0 100-1 .5.5 0 000 1z" stroke="#E94F1D" stroke-width="1.5" stroke-linecap="round" stroke-linejoin="round"/><path d="M14.5 15a.5.5 0 100-1 .5.5 0 000 1z" stroke="#FC5824" stroke-width="1.5" stroke-linecap="round" stroke-linejoin="round"/><path d="M14.5 15a.5.5 0 100-1 .5.5 0 000 1z" stroke="#E7351D" stroke-width="1.5" stroke-linecap="round" stroke-linejoin="round"/><path d="M5 7.2A2.2 2.2 0 017.2 5h1a2.2 2.2 0 001.55-.64l.7-.7a2.2 2.2 0 013.12 0l.7.7c.412.41.97.64 1.55.64h1a2.2 2.2 0 012.2 2.2v1c0 .58.23 1.138.64 1.55l.7.7a2.2 2.2 0 010 3.12l-.7.7a2.2 2.2 0 00-.64 1.55v1a2.2 2.2 0 01-2.2 2.2h-1a2.2 2.2 0 00-1.55.64l-.7.7a2.199 2.199 0 01-3.12 0l-.7-.7a2.2 2.2 0 00-1.55-.64h-1a2.2 2.2 0 01-2.2-2.2v-1a2.2 2.2 0 00-.64-1.55l-.7-.7a2.2 2.2 0 010-3.12l.7-.7A2.2 2.2 0 005 8.2v-1" stroke="#E94F1D" stroke-width="1.5" stroke-linecap="round" stroke-linejoin="round"/><path d="M5 7.2A2.2 2.2 0 017.2 5h1a2.2 2.2 0 001.55-.64l.7-.7a2.2 2.2 0 013.12 0l.7.7c.412.41.97.64 1.55.64h1a2.2 2.2 0 012.2 2.2v1c0 .58.23 1.138.64 1.55l.7.7a2.2 2.2 0 010 3.12l-.7.7a2.2 2.2 0 00-.64 1.55v1a2.2 2.2 0 01-2.2 2.2h-1a2.2 2.2 0 00-1.55.64l-.7.7a2.199 2.199 0 01-3.12 0l-.7-.7a2.2 2.2 0 00-1.55-.64h-1a2.2 2.2 0 01-2.2-2.2v-1a2.2 2.2 0 00-.64-1.55l-.7-.7a2.2 2.2 0 010-3.12l.7-.7A2.2 2.2 0 005 8.2v-1" stroke="#FC5824" stroke-width="1.5" stroke-linecap="round" stroke-linejoin="round"/><path d="M5 7.2A2.2 2.2 0 017.2 5h1a2.2 2.2 0 001.55-.64l.7-.7a2.2 2.2 0 013.12 0l.7.7c.412.41.97.64 1.55.64h1a2.2 2.2 0 012.2 2.2v1c0 .58.23 1.138.64 1.55l.7.7a2.2 2.2 0 010 3.12l-.7.7a2.2 2.2 0 00-.64 1.55v1a2.2 2.2 0 01-2.2 2.2h-1a2.2 2.2 0 00-1.55.64l-.7.7a2.199 2.199 0 01-3.12 0l-.7-.7a2.2 2.2 0 00-1.55-.64h-1a2.2 2.2 0 01-2.2-2.2v-1a2.2 2.2 0 00-.64-1.55l-.7-.7a2.2 2.2 0 010-3.12l.7-.7A2.2 2.2 0 005 8.2v-1" stroke="#E7351D" stroke-width="1.5" stroke-linecap="round" stroke-linejoin="round"/></svg>