<svg width="24" height="24" fill="none" xmlns="http://www.w3.org/2000/svg"><path d="M7 19a2 2 0 100-4 2 2 0 000 4z" stroke="#E94F1D" stroke-width="1.5" stroke-linecap="round" stroke-linejoin="round"/><path d="M7 19a2 2 0 100-4 2 2 0 000 4z" stroke="#FC5824" stroke-width="1.5" stroke-linecap="round" stroke-linejoin="round"/><path d="M7 19a2 2 0 100-4 2 2 0 000 4z" stroke="#E7351D" stroke-width="1.5" stroke-linecap="round" stroke-linejoin="round"/><path d="M17 19a2 2 0 100-4 2 2 0 000 4z" stroke="#E94F1D" stroke-width="1.5" stroke-linecap="round" stroke-linejoin="round"/><path d="M17 19a2 2 0 100-4 2 2 0 000 4z" stroke="#FC5824" stroke-width="1.5" stroke-linecap="round" stroke-linejoin="round"/><path d="M17 19a2 2 0 100-4 2 2 0 000 4z" stroke="#E7351D" stroke-width="1.5" stroke-linecap="round" stroke-linejoin="round"/><path d="M5 17H3v-4M2 5h11v12m-4 0h6m4 0h2v-6m0 0h-8m8 0l-3-5h-5" stroke="#E94F1D" stroke-width="1.5" stroke-linecap="round" stroke-linejoin="round"/><path d="M5 17H3v-4M2 5h11v12m-4 0h6m4 0h2v-6m0 0h-8m8 0l-3-5h-5" stroke="#FC5824" stroke-width="1.5" stroke-linecap="round" stroke-linejoin="round"/><path d="M5 17H3v-4M2 5h11v12m-4 0h6m4 0h2v-6m0 0h-8m8 0l-3-5h-5" stroke="#E7351D" stroke-width="1.5" stroke-linecap="round" stroke-linejoin="round"/><path d="M3 9h4" stroke="#E94F1D" stroke-width="1.5" stroke-linecap="round" stroke-linejoin="round"/><path d="M3 9h4" stroke="#FC5824" stroke-width="1.5" stroke-linecap="round" stroke-linejoin="round"/><path d="M3 9h4" stroke="#E7351D" stroke-width="1.5" stroke-linecap="round" stroke-linejoin="round"/></svg>