<svg width="50" height="50" fill="none" xmlns="http://www.w3.org/2000/svg"><g clip-path="url(#clip0)" fill="#357CDD"><path d="M45.667 23.064l-3.918-5.877h-8.384l.547-3.515h-3.577c-.37-3.723-3.519-6.64-7.337-6.64-3.818 0-6.967 2.917-7.336 6.64h-9.07v1.465h9.07c.368 3.723 3.518 6.64 7.336 6.64 3.818 0 6.968-2.917 7.336-6.64h1.868L29.5 32.52H15.817c-2.683-4.17-8.742-4.16-11.42 0H0v4.394h3.36c.367 3.4 3.252 6.055 6.747 6.055s6.38-2.656 6.747-6.055h13.948c.366 3.4 3.252 6.055 6.747 6.055s6.38-2.656 6.747-6.055H50v-9.13a4.743 4.743 0 00-4.333-4.72zm-22.669-2.752a5.915 5.915 0 01-5.908-5.908 5.915 5.915 0 015.908-5.908 5.915 5.915 0 015.908 5.908 5.915 5.915 0 01-5.908 5.909zM3.36 35.45H1.465v-1.465h2.222c-.16.468-.272.958-.327 1.465zm6.747 6.055a5.328 5.328 0 01-5.322-5.322 5.328 5.328 0 015.322-5.323 5.328 5.328 0 015.323 5.323 5.328 5.328 0 01-5.323 5.322zm26.5-22.852h4.358l2.93 4.395h-8.02l.732-4.395zM30.802 35.45H16.854a6.728 6.728 0 00-.327-1.465H31.13a6.73 6.73 0 00-.327 1.465zm6.747 6.055a5.328 5.328 0 01-5.322-5.322 5.328 5.328 0 015.322-5.323 5.328 5.328 0 015.322 5.323 5.328 5.328 0 01-5.322 5.322zm10.986-6.055h-4.24a6.728 6.728 0 00-.326-1.465h4.566v1.465zm0-2.93H43.26c-2.684-4.169-8.743-4.159-11.42 0h-.857l2.155-13.867h1.985l-.977 5.86h11.119a3.277 3.277 0 013.187 2.539H45.85a2.2 2.2 0 00-2.198 2.197 2.2 2.2 0 002.198 2.197h2.685v1.075zm0-2.538H45.85c-.97 0-.969-1.465 0-1.465h2.685v1.465zM1.514 17.383h1.465v1.465H1.514v-1.465z"/><path d="M4.443 17.383h6.543v1.465H4.443v-1.465zm.098 3.564h1.465v1.465H4.54v-1.465zm2.929 0h8.4v1.465h-8.4v-1.465zm-4.394 3.565h8.399v1.465H3.076v-1.465zm-2.93 0h1.465v1.465H.146v-1.465zm9.961 9.472a2.2 2.2 0 00-2.197 2.198 2.2 2.2 0 002.197 2.197 2.2 2.2 0 002.198-2.197 2.2 2.2 0 00-2.198-2.198zm-.732 2.198c0-.97 1.465-.969 1.465 0 0 .404-1.465.968-1.465 0zm28.174-2.198a2.2 2.2 0 00-2.197 2.198 2.2 2.2 0 002.197 2.197 2.2 2.2 0 002.197-2.197 2.2 2.2 0 00-2.197-2.198zm0 2.93c-.97 0-.968-1.465 0-1.465.97 0 .968 1.465 0 1.465zM23.828 10.205h-1.465v5.322h3.467v-1.464h-2.002v-3.858z"/></g><defs><clipPath id="clip0"><path fill="#fff" d="M0 0h50v50H0z"/></clipPath></defs></svg>