<svg width="45" height="45" fill="none" xmlns="http://www.w3.org/2000/svg"><path d="M23.203 27.422h-.58a9.88 9.88 0 004.139-4.922h.308a3.168 3.168 0 003.164-3.164c0-1.624-1.234-2.951-2.812-3.128v-.036h1.406a.703.703 0 00.703-.703v-2.813a.703.703 0 00-.703-.703h-.735c-.305-4.507-3.5-8.345-7.829-9.49l.121-.97a.704.704 0 00-.698-.79H15.47a.704.704 0 00-.698.79l.122.971c-4.334 1.144-7.525 4.976-7.83 9.49h-.735a.703.703 0 00-.703.702v2.813c0 .388.314.703.703.703h1.406v.036c-1.577.177-2.812 1.504-2.812 3.128A3.168 3.168 0 008.086 22.5h.309a9.881 9.881 0 004.139 4.922h-.58c-5.429 0-9.845 4.415-9.845 9.844v6.328c0 .388.315.703.704.703h29.53a.703.703 0 00.704-.703v-6.328c0-5.428-4.416-9.844-9.844-9.844zm1.406 1.533v6.201h-1.406v-6.328c.48 0 .948.05 1.406.127zm2.813 13.936h-2.813v-4.22a.703.703 0 00-.703-.702H11.25a.703.703 0 00-.703.703v4.219H7.734v-6.328h19.688v6.328zm-4.219 0h-11.25v-3.516h11.25v3.516zm5.625-23.555c0 .927-.724 1.682-1.636 1.746.147-.677.23-1.378.23-2.098v-1.37a1.76 1.76 0 011.406 1.722zM18.891 2.109l-.527 4.22h-1.571l-.528-4.22h2.626zm-3.822 1.766l.405 3.243a.702.702 0 00.698.616h2.812a.702.702 0 00.698-.616l.406-3.243c3.63 1.04 6.302 4.275 6.598 8.078H8.47c.296-3.808 2.966-7.038 6.599-8.078zM7.03 13.359h21.094v1.407H7.031v-1.407zm-.703 5.977a1.76 1.76 0 011.406-1.722v1.37c0 .72.083 1.42.23 2.098a1.755 1.755 0 01-1.636-1.746zm2.813-.352v-2.812h16.875v2.812c0 4.653-3.785 8.438-8.438 8.438-4.652 0-8.437-3.785-8.437-8.438zm12.656 9.844v6.328h-8.438v-6.328h8.438zm-9.844 6.328h-1.406v-6.2a8.42 8.42 0 011.406-.128v6.328zm-8.437 2.11c0-3.666 2.353-6.783 5.625-7.946v5.836H7.03a.703.703 0 00-.703.703v7.032H3.516v-5.625zM31.64 42.89h-2.813v-7.032a.703.703 0 00-.703-.703h-2.11V29.32c3.272 1.163 5.626 4.28 5.626 7.946v5.625z" fill="#357CDD"/><path d="M17.578 24.61a2.112 2.112 0 01-2.11-2.11h-1.405a3.52 3.52 0 003.515 3.516 3.52 3.52 0 003.516-3.516h-1.407c0 1.163-.946 2.11-2.109 2.11zm22.5 2.343v-8.906a4.93 4.93 0 002.813-4.443 4.928 4.928 0 00-3.281-4.636.705.705 0 00-.938.663v3.682l-.703.703-.703-.703V9.631a.7.7 0 00-.938-.663 4.928 4.928 0 00-3.281 4.637 4.93 4.93 0 002.812 4.443v8.905a4.93 4.93 0 00-2.812 4.443 4.928 4.928 0 003.28 4.636.705.705 0 00.939-.663v-3.682l.703-.703.703.703v3.682a.7.7 0 00.703.703.708.708 0 00.235-.04 4.93 4.93 0 003.28-4.637 4.929 4.929 0 00-2.812-4.442zm0 7.25v-2.807a.701.701 0 00-.206-.497l-1.406-1.406a.701.701 0 00-.994 0l-1.407 1.406a.7.7 0 00-.206.496v2.808a3.519 3.519 0 01-1.406-2.808 3.52 3.52 0 012.344-3.31c.28-.1.469-.365.469-.663v-9.844a.704.704 0 00-.469-.663 3.52 3.52 0 01-2.344-3.31c0-1.122.539-2.155 1.406-2.808v2.808c0 .186.074.365.206.497l1.407 1.406a.702.702 0 00.994 0l1.406-1.406a.702.702 0 00.206-.497v-2.808a3.519 3.519 0 011.406 2.808 3.52 3.52 0 01-2.344 3.31.704.704 0 00-.468.663v9.844c0 .298.188.563.468.663a3.52 3.52 0 012.344 3.31 3.519 3.519 0 01-1.406 2.808z" fill="#357CDD"/></svg>