<svg width="50" height="50" fill="none" xmlns="http://www.w3.org/2000/svg"><path d="M44.531 19.992l1.028.698a.782.782 0 001.085-.208l1.754-2.587a.78.78 0 00-.207-1.085L25.439 1.372a.781.781 0 00-.877 0L1.809 16.81a.781.781 0 00-.208 1.085l1.754 2.587a.779.779 0 001.086.208l1.028-.699v7.817c-.458.2-.832.57-1.028 1.055-1.314 3.247-2.879 7.514-2.879 9.417 0 2.805 1.633 4.983 3.907 5.393v3.201H1.562v1.563h46.876v-1.563H44.53V19.992zM4.211 18.96l-.878-1.295L25 2.962l21.667 14.702-.877 1.294-20.35-13.81a.783.783 0 00-.88 0L4.21 18.958zM3.124 38.28c0-1.27 1.007-4.488 2.763-8.831a.377.377 0 01.362-.244c.079 0 .272.023.362.244 1.756 4.343 2.763 7.562 2.763 8.831 0 2.264-1.315 3.907-3.125 3.907s-3.125-1.644-3.125-3.907zm3.906 5.393c2.274-.41 3.907-2.588 3.907-5.393 0-1.903-1.565-6.17-2.879-9.417a1.942 1.942 0 00-1.028-1.055v-8.877L25 6.739l17.969 12.193v15.207l-.132-.197c-.29-.435-1.01-.435-1.3 0l-1.562 2.344a.78.78 0 00-.131.433v1.562H38.28V36.72a.786.786 0 00-.131-.434l-1.563-2.344c-.29-.435-1.01-.435-1.3 0l-1.562 2.344a.785.785 0 00-.131.434v1.562H32.03V36.72a.786.786 0 00-.131-.434l-1.563-2.344c-.29-.435-1.01-.435-1.3 0l-1.562 2.344a.785.785 0 00-.131.434v10.156h-4.688V32.031a.78.78 0 00-.781-.781H13.28a.78.78 0 00-.781.781v14.844H7.031v-3.2zm23.438 3.201h-1.563v-9.92l.782-1.171.78 1.172v9.919zm1.562-7.031h1.563v1.562H32.03v-1.562zm0 3.125h1.563v3.906H32.03v-3.906zm4.688 3.906h-1.563v-9.92l.782-1.171.78 1.172v9.919zm1.562-7.031h1.563v1.562H38.28v-1.562zm0 3.125h1.563v3.906H38.28v-3.906zm-17.187 3.906h-7.032V32.812h7.032v14.063zm20.312 0v-9.92l.782-1.171.78 1.172v9.919h-1.562z" fill="#357CDD"/><path d="M22.656 25.781h4.688a3.128 3.128 0 003.125-3.125V17.97a3.128 3.128 0 00-3.125-3.125h-4.688a3.128 3.128 0 00-3.125 3.125v4.687a3.128 3.128 0 003.125 3.125zm-1.562-3.125v-1.562h3.125v3.125h-1.563a1.564 1.564 0 01-1.562-1.563zm6.25 1.563H25.78v-3.125h3.125v1.562c0 .862-.7 1.563-1.562 1.563zm1.562-6.25v1.562h-3.125v-3.125h1.563c.861 0 1.562.701 1.562 1.563zm-6.25-1.563h1.563v3.125h-3.125V17.97c0-.862.7-1.563 1.562-1.563zm-4.687 22.657h1.562v1.562H17.97v-1.563z" fill="#357CDD"/></svg>