<svg width="45" height="45" fill="none" xmlns="http://www.w3.org/2000/svg"><path d="M42.75 40.5c-.13 0-.259.011-.386.034A2.978 2.978 0 0039.75 39a2.979 2.979 0 00-2.614 1.534A2.253 2.253 0 0034.5 42.75c0 .264.053.514.138.75H31.5V39h3.75a.75.75 0 00.75-.75v-30a.75.75 0 00-.75-.75h-22.5a.75.75 0 00-.75.75v36c0 .414.336.75.75.75h30c1.24 0 2.25-1.01 2.25-2.25s-1.01-2.25-2.25-2.25zM31.5 9h3v4.5h-3V9zm0 6h3v4.5h-3V15zm0 6h3v4.5h-3V21zm0 6h3v4.5h-3V27zm0 6h3v4.5h-3V33zm-15 10.5h-3V39h3v4.5zm0-6h-3V33h3v4.5zm0-6h-3V27h3v4.5zm0-6h-3V21h3v4.5zm0-6h-3V15h3v4.5zm0-6h-3V9h3v4.5zm4.5 30h-3V39h3v4.5zm0-6h-3V33h3v4.5zm0-6h-3V27h3v4.5zm0-6h-3V21h3v4.5zm0-6h-3V15h3v4.5zm0-6h-3V9h3v4.5zm4.5 30h-3V39h3v4.5zm0-6h-3V33h3v4.5zm0-6h-3V27h3v4.5zm0-6h-3V21h3v4.5zm0-6h-3V15h3v4.5zm0-6h-3V9h3v4.5zm4.5 30h-3V39h3v4.5zm0-6h-3V33h3v4.5zm0-6h-3V27h3v4.5zm0-6h-3V21h3v4.5zm0-6h-3V15h3v4.5zm0-6h-3V9h3v4.5zm12.75 30h-6a.751.751 0 010-1.5c.144 0 .28.041.407.122a.752.752 0 001.137-.461A1.49 1.49 0 0139.75 40.5a1.49 1.49 0 011.457 1.161.748.748 0 001.137.461c.487-.315 1.157.07 1.156.628 0 .413-.337.75-.75.75z" fill="#357CDD"/><path d="M16.5 5.25V3h5.25a.75.75 0 00.75-.75V1.5h3v.75c0 .414.336.75.75.75h5.25v1.5H18.75a.75.75 0 000 1.5H37.5v31.11a.75.75 0 001.5 0V5.25a.75.75 0 00-.75-.75H33V2.25a.75.75 0 00-.75-.75H27V.75a.75.75 0 00-.75-.75h-4.5a.75.75 0 00-.75.75v.75h-5.25a.75.75 0 00-.75.75V4.5H9.75a.75.75 0 00-.75.75V43.5H4.5v-3.076c1.71-.349 3-1.863 3-3.674 0-.098-.043-9.75-3.75-9.75S0 36.653 0 36.75a3.756 3.756 0 003 3.674V43.5H.75a.75.75 0 000 1.5h9a.75.75 0 00.75-.75V6h5.25a.75.75 0 00.75-.75zm-15 31.5c0-3.736 1.004-8.25 2.25-8.25S6 33.014 6 36.75C6 37.99 4.99 39 3.75 39S1.5 37.99 1.5 36.75z" fill="#357CDD"/></svg>