<svg width="45" height="45" fill="none" xmlns="http://www.w3.org/2000/svg"><path d="M44.25 12H24v-.75a2.25 2.25 0 00-1.5-2.112V6H24V3.75A3.754 3.754 0 0020.25 0h-15A3.754 3.754 0 001.5 3.75v5.388A2.25 2.25 0 000 11.25v31.5A2.25 2.25 0 002.25 45h19.5A2.25 2.25 0 0024 42.75V31.5h20.25a.75.75 0 00.75-.75v-18a.75.75 0 00-.75-.75zm-.75 1.5V15H24v-1.5h19.5zm0 4.5H24v-1.5h19.5V18zm-21-14.25v.75H9v-.75a3.713 3.713 0 00-.77-2.25h12.02a2.25 2.25 0 012.25 2.25zM3 3.75a2.25 2.25 0 014.5 0v1.5c0 .414.336.75.75.75H21v3H3V3.75zm19.5 39a.75.75 0 01-.75.75H2.25a.75.75 0 01-.75-.75v-31.5a.75.75 0 01.75-.75h19.5a.75.75 0 01.75.75v31.5zM24 30V19.5h19.5V30H24z" fill="#357CDD"/><path d="M25.5 25.5H27v3h-1.5v-3zm4.5 0h1.5v3H30v-3zm3 0h1.5v3H33v-3zm3 0h6V21h-6v4.5zm1.5-3h3V24h-3v-1.5zM9.75 30h4.5v-4.5h-4.5V30zm1.5-3h1.5v1.5h-1.5V27zm-7.5 3h4.5v-4.5h-4.5V30zm1.5-3h1.5v1.5h-1.5V27zm10.5 3h4.5v-4.5h-4.5V30zm1.5-3h1.5v1.5h-1.5V27zm-7.5 9h4.5v-4.5h-4.5V36zm1.5-3h1.5v1.5h-1.5V33zm-7.5 3h4.5v-4.5h-4.5V36zm1.5-3h1.5v1.5h-1.5V33zm10.5 3h4.5v-4.5h-4.5V36zm1.5-3h1.5v1.5h-1.5V33zm-7.5 9h4.5v-4.5h-4.5V42zm1.5-3h1.5v1.5h-1.5V39zm-7.5 3h4.5v-4.5h-4.5V42zm1.5-3h1.5v1.5h-1.5V39zm10.5 3h4.5v-4.5h-4.5V42zm1.5-3h1.5v1.5h-1.5V39zM3 24h18V12H3v12zm1.5-10.5h15v9h-15v-9z" fill="#357CDD"/><path d="M6 15h1.5v1.5H6V15zm3 0h1.5v1.5H9V15zm2.47 5.47l2.25-2.25 1.06 1.06-2.25 2.25-1.06-1.06zm3.75-.75l2.25-2.25 1.06 1.06-2.25 2.25-1.06-1.06z" fill="#357CDD"/></svg>