<svg width="45" height="45" fill="none" xmlns="http://www.w3.org/2000/svg"><path d="M33.322 35.296h-3.506v-.304c0-.237.137-.486.41-.748 1.152-1.101 3.588-2.01 3.588-4.195 0-1.564-1.333-2.511-2.823-2.511-1.38 0-2.684.869-2.684 2.314 0 .586.243.88.73.88.444 0 .841-.245.841-.622 0-.379.106-.664.317-.854.442-.398 1.303-.384 1.687.058.811.935-.148 1.977-1.131 2.712-.333.286-2.507 1.463-2.507 2.96v1.225c0 .31.421.518.703.518h4.387c.131 0 .248-.073.351-.22.347-.496.056-1.213-.363-1.213z" fill="#357CDD"/><path d="M39.082 33.209v-1.384c0-.726-1.635-.723-1.635 0v1.384h-1.47l2.413-4.829c.335-.67-1.038-1.279-1.446-.418l-2.98 5.81c-.22.408-.012.87.466.87h3.018v1.549c0 .706 1.634.725 1.634 0v-1.55h.591c.407 0 .7-.72.377-1.22-.211-.325-.489-.174-.968-.212zM20.838 17.876V9.891a.88.88 0 00-1.758 0v7.985a3.102 3.102 0 00-2.083 2.083h-4.253a.879.879 0 100 1.758h4.253a3.095 3.095 0 002.962 2.21 3.093 3.093 0 003.09-3.089 3.095 3.095 0 00-2.211-2.962zm-.879 4.294a1.334 1.334 0 01-1.332-1.332 1.333 1.333 0 012.664 0c0 .734-.598 1.332-1.332 1.332zm8.901 2.314a.879.879 0 10-1.757-.002.879.879 0 001.756.002z" fill="#357CDD"/><path d="M44.632 30.167a11.118 11.118 0 00-4.895-6.652c.12-.888.18-1.786.18-2.677 0-11.031-8.926-19.96-19.958-19.96C8.93.879 0 9.807 0 20.839c0 13.028 12.357 22.71 25.146 19.276a11.208 11.208 0 0011.496 3.728c5.973-1.568 9.557-7.702 7.99-13.675zm-8.436 11.974c-3.925 1.03-7.932-.578-10.134-3.722l-.03-.043a9.438 9.438 0 01-.214-10.41c.411-.651.588-.729.607-1.11.043-.864-1.062-1.264-1.58-.572a11.148 11.148 0 00-2.149 8.188C14.043 36.2 6.054 29.55 6.054 20.838c0-7.667 6.238-13.905 13.905-13.905 3.41 0 6.604 1.205 9.133 3.418l-.999-.082a.878.878 0 10-.144 1.752c3.182.261 3.011.25 3.078.25a.88.88 0 00.875-.8l.271-3.002a.878.878 0 10-1.75-.159l-.074.809a15.594 15.594 0 00-10.39-3.943c-8.636 0-15.662 7.026-15.662 15.662 0 9.877 9.067 17.302 18.765 15.352.252.852.614 1.68 1.014 2.38-11.441 2.648-22.318-6.082-22.318-17.732 0-10.036 8.165-18.201 18.201-18.201 10.036 0 18.201 8.165 18.201 18.201 0 .604-.03 1.212-.09 1.817a11.118 11.118 0 00-2.489-.708 15.543 15.543 0 00-1.335-7.536.88.88 0 00-1.603.722 13.797 13.797 0 011.22 5.705c0 .322-.01.646-.033.968-1.62-.002-2.914.382-2.873.37a.879.879 0 00-.627 1.074c.277 1.055 1.247.526 2.278.393 4.61-.591 9.097 2.293 10.324 6.97 1.321 5.036-1.7 10.207-6.736 11.529z" fill="#357CDD"/></svg>