<svg width="45" height="45" fill="none" xmlns="http://www.w3.org/2000/svg"><g clip-path="url(#clip0)" fill="#357CDD"><path d="M14.525 36.92a.66.66 0 00.66-.659v-.431c.931-.233 1.654-.938 1.849-1.87.232-1.115-.34-2.155-1.458-2.651l-.392-.175v-2.006c.232.092.377.186.386.192a.66.66 0 00.75-1.085 3.75 3.75 0 00-1.136-.49v-.362a.66.66 0 00-1.318 0v.28c-.1.013-.201.03-.304.054-.784.181-1.371.805-1.531 1.629-.156.803.146 1.603.769 2.04.267.187.63.38 1.066.591v2.586c-.269-.043-.478-.14-.805-.353a.66.66 0 10-.722 1.103c.579.378 1 .526 1.527.576v.372c0 .364.295.66.66.66zm1.218-3.23a1.116 1.116 0 01-.559.74v-1.843c.445.25.653.654.559 1.103zm-2.187-3.384c-.24-.168-.274-.487-.231-.709.023-.116.128-.501.534-.595l.007-.001v1.495a3.709 3.709 0 01-.31-.19zM37.593 0H7.407a.66.66 0 00-.66.66v28.59a.66.66 0 101.319 0V1.317h28.868v5.624a.66.66 0 101.319 0V.66a.66.66 0 00-.66-.659z"/><path d="M37.593 9.368a.66.66 0 00-.659.66v32.52l-1.857-2.186a.66.66 0 00-1.005 0l-2.516 2.961-2.517-2.96a.66.66 0 00-1.004 0l-2.516 2.96-2.517-2.96a.66.66 0 00-1.004 0l-2.517 2.96-2.516-2.96a.66.66 0 00-1.005 0l-2.516 2.96-2.516-2.96a.659.659 0 00-1.005 0l-1.857 2.184V32.334a.66.66 0 10-1.319 0v12.007a.66.66 0 001.162.427l2.517-2.96 2.515 2.96a.66.66 0 001.005 0l2.517-2.96 2.515 2.96a.66.66 0 001.005 0l2.517-2.961 2.517 2.96a.66.66 0 001.004 0l2.516-2.96 2.517 2.96a.66.66 0 001.005 0l2.516-2.96 2.516 2.96a.66.66 0 001.162-.426V10.027a.66.66 0 00-.66-.659zM30.49 2.841H14.51a.66.66 0 00-.66.66v2.84c0 .364.295.66.66.66h15.98a.66.66 0 00.66-.66v-2.84a.66.66 0 00-.66-.66zm-.659 2.841H15.17V4.16h14.66v1.523zM10.78 16.944h14.206a.66.66 0 100-1.318H10.78a.66.66 0 000 1.318zm-.659-4.21a.66.66 0 00.66.659h14.205a.66.66 0 100-1.318H10.78a.66.66 0 00-.66.659z"/><path d="M10.78 20.496h14.206a.66.66 0 100-1.319H10.78a.66.66 0 000 1.319zm0 3.551h14.206a.66.66 0 100-1.318H10.78a.66.66 0 000 1.318zm23.44-8.421H31.2a.66.66 0 100 1.318h3.02a.66.66 0 000-1.318zm0-3.551H31.2a.66.66 0 100 1.318h3.02a.66.66 0 000-1.318zm0 7.102H31.2a.66.66 0 100 1.319h3.02a.66.66 0 000-1.319zm0 3.552H31.2a.66.66 0 100 1.318h3.02a.66.66 0 000-1.318zm0 3.551H31.2a.66.66 0 100 1.318h3.02a.66.66 0 000-1.318z"/></g><defs><clipPath id="clip0"><path fill="#fff" d="M0 0h45v45H0z"/></clipPath></defs></svg>