<svg width="45" height="45" fill="none" xmlns="http://www.w3.org/2000/svg"><path d="M33.047 7.734a4.218 4.218 0 100 8.437 4.218 4.218 0 000-8.437zm0 7.032a2.812 2.812 0 110-5.625 2.812 2.812 0 010 5.625zm-10.632 8.352l.823-.824-.994-.994-.824.823a10.423 10.423 0 00-2.043 2.887l1.27.605a9.023 9.023 0 011.768-2.497zm-3.95 4.907l1.391.2a9.14 9.14 0 01.288-1.305l-1.348-.402c-.147.493-.258.997-.331 1.507z" fill="#357CDD"/><path d="M42.89 1.406h-2.374a13.552 13.552 0 00-9.646 3.996 28.53 28.53 0 00-3.623 4.442H24.78a7.854 7.854 0 00-5.59 2.315.703.703 0 000 .994l2.813 2.813c.132.132.31.206.497.206h1.606c-.037.107-.075.215-.111.323l-1.992 1.992a74.895 74.895 0 00-8.555 10.242 5.621 5.621 0 00-8.515 1.579 3.518 3.518 0 00-3.35 1.116l1.054.93a2.11 2.11 0 011.758-.706 5.616 5.616 0 00-.176 1.399h1.406a4.217 4.217 0 017.026-3.147c-.225.339-.448.679-.669 1.02l-.125.196A5.713 5.713 0 017.03 33.75v1.406a7.113 7.113 0 006.008-3.28l.126-.195a73.474 73.474 0 019.338-11.699L25.02 22.5l-1.612 1.612a7.664 7.664 0 000 10.838l.995-.994a6.21 6.21 0 01-1.753-3.426 2.813 2.813 0 014.016 1.983 6.3 6.3 0 00-.915.291l.527 1.303a4.926 4.926 0 016.768 4.565h1.406a6.335 6.335 0 00-6.328-6.328l-.06.001a4.22 4.22 0 00-5.473-3.308 6.21 6.21 0 011.812-3.93l4.1-4.102c.109-.036.217-.074.324-.111V22.5c0 .186.074.365.206.497l2.813 2.813a.703.703 0 00.994 0 7.855 7.855 0 002.315-5.59v-2.467a28.524 28.524 0 004.442-3.623 13.55 13.55 0 003.996-9.645V2.109a.703.703 0 00-.703-.703zm-.702 1.407v1.672a12.3 12.3 0 01-.427 3.218 4.602 4.602 0 01-2.75-1.327l-.387-.387a4.603 4.603 0 01-1.327-2.75 12.3 12.3 0 013.219-.426h1.672zM22.79 14.766l-2.083-2.083a6.45 6.45 0 014.072-1.433h1.595a28.678 28.678 0 00-1.734 3.516h-1.85zm.703 4.218l1.115-1.115 2.522 2.522-1.115 1.115-2.521-2.522zM33.75 20.22a6.45 6.45 0 01-1.433 4.072l-2.083-2.083v-1.85a28.672 28.672 0 003.516-1.733v1.594zm4.854-7.084a27.285 27.285 0 01-10.29 6.448l-2.898-2.897a27.286 27.286 0 016.448-10.29 12.21 12.21 0 014.076-2.703 6 6 0 001.69 3.29l.386.386a6 6 0 003.29 1.69 12.211 12.211 0 01-2.702 4.076zM6.345 38.216a4.217 4.217 0 00-3.955.597l.844 1.124a2.813 2.813 0 014.5 2.25h1.407a4.212 4.212 0 00-1.569-3.279 3.517 3.517 0 014.732-1.172l.704-1.218a4.925 4.925 0 00-6.663 1.698z" fill="#357CDD"/><path d="M19.688 35.156c-1.211 0-2.38.446-3.282 1.254l.938 1.048a3.516 3.516 0 015.66 3.792l1.325.469a4.925 4.925 0 00-4.642-6.563z" fill="#357CDD"/></svg>