<svg width="70" height="70" fill="none" xmlns="http://www.w3.org/2000/svg"><g clip-path="url(#clip0)" fill="#357CDD"><path d="M47.489 40.165l-3.445-.663a2.215 2.215 0 01-1.794-2.172v-1.294a15.793 15.793 0 002.175-1.609c2.471-2.172 3.998-5.253 4.306-8.684 1.805-.062 3.251-1.566 3.243-3.4l-.01-2.603a3.4 3.4 0 00-.808-2.186v-3.19a1.038 1.038 0 10-2.077 0v2.223c-9.46-2.659-18.7-2.66-28.158 0v-5.383a7.582 7.582 0 015.742-7.363l5.764-1.448a10.6 10.6 0 015.146 0l5.764 1.448a7.624 7.624 0 015.594 5.868 1.039 1.039 0 002.036-.408 9.71 9.71 0 00-7.124-7.474L38.079.38a12.68 12.68 0 00-6.158 0l-5.764 1.447a9.656 9.656 0 00-7.313 9.377v6.35a3.4 3.4 0 00-.808 2.186l-.01 2.603c-.008 1.834 1.438 3.338 3.243 3.4.308 3.431 1.835 6.512 4.306 8.684a15.795 15.795 0 002.175 1.61v1.294c0 .967-.594 1.867-1.785 2.169l-3.454.665C12.979 42 6.103 50.378 6.103 60.032v4.226A5.75 5.75 0 0011.845 70h46.31a5.75 5.75 0 005.742-5.742v-4.226c0-9.692-6.913-18.04-16.408-19.867zm.352 2.2c1.12.264 2.197.63 3.22 1.088v11.681a4.246 4.246 0 00-2.388-.732h-.832V42.364zm.251-23.898c-1.072 1.055-2.32 2.714-4.854 2.276A48.283 48.283 0 0035 20.026c-2.733 0-5.466.239-8.237.717-2.515.434-3.776-1.211-4.86-2.275 8.793-2.396 17.395-2.397 26.19-.001zm-21.146 14.4c-2.09-1.837-3.375-4.464-3.617-7.398a1.952 1.952 0 00-1.95-1.8c-.707-.003-1.28-.594-1.277-1.317l.01-2.603c.001-.04.004-.08.008-.118 1.59 1.54 3.375 3.783 6.996 3.158a45.633 45.633 0 0115.769 0c3.753.647 5.663-1.875 6.995-3.164.004.041.007.082.007.124l.011 2.603c.003.723-.57 1.313-1.277 1.317a1.953 1.953 0 00-1.95 1.8c-.242 2.934-1.527 5.561-3.617 7.399-4.782 4.203-11.278 4.245-16.108 0zm15.226 8.087l-1.755 1.41c-2.982 2.395-7.298 2.38-10.263-.038l-1.978-1.613c1.847-1.432 1.634-3.555 1.65-3.626 3.382 1.377 6.925 1.394 10.348 0 .012.047-.205 2.47 1.998 3.867zm-17.67.943l1.488-.287 2.852 2.326a10.237 10.237 0 0012.876.046l2.824-2.27 1.222.236v12.454H24.502V41.897zM16.186 60.82a4.279 4.279 0 00-.982 2.724v4.38h-3.359a3.67 3.67 0 01-3.666-3.666V60.78h8.04l-.033.04zm.942-2.117h-8.9c.442-6.025 3.857-11.34 8.9-14.315v3.003a1.038 1.038 0 002.076 0v-4.054a18.096 18.096 0 013.221-1.033v12.098h-.845c-.879 0-1.696.267-2.376.724v-2.882a1.038 1.038 0 10-2.077 0v6.459zm35.592 9.22H17.28v-4.379c0-1.12.768-1.628 1.125-2.148.639-.77.982-1.747.982-2.724 0-1.21.984-2.194 2.193-2.194h27.093c1.21 0 2.193.984 2.193 2.194.012.078-.11 1.352.82 2.627.39.628 1.033 1.106 1.033 2.133v4.492zm.418-9.22V44.548c4.897 3.003 8.2 8.236 8.633 14.155h-8.633zm8.683 5.554a3.67 3.67 0 01-3.666 3.666h-3.359v-4.49c0-.91-.283-1.78-.819-2.516l-.1-.137h7.944v3.477z"/><path d="M31.145 5.668a2.447 2.447 0 00-2.444 2.444v1.803a2.447 2.447 0 002.444 2.444h7.71a2.447 2.447 0 002.444-2.444V8.112a2.447 2.447 0 00-2.444-2.444h-7.71zm8.077 2.444v1.803a.368.368 0 01-.367.368h-7.71a.368.368 0 01-.367-.368V8.112c0-.202.165-.367.367-.367h7.71c.202 0 .367.165.367.367z"/></g><defs><clipPath id="clip0"><path fill="#fff" d="M0 0h70v70H0z"/></clipPath></defs></svg>