<svg width="70" height="70" fill="none" xmlns="http://www.w3.org/2000/svg"><path d="M58.945 23.945C58.945 10.721 48.225 0 35 0S11.055 10.72 11.055 23.945c-3.42.426-6.652 2.66-6.652 7.849v12.505c0 5.853 4.098 7.982 7.982 7.982h3.858a1.33 1.33 0 001.33-1.33V25.195a1.33 1.33 0 00-1.33-1.33h-2.528C13.715 12.11 23.245 2.58 35 2.58s21.285 9.53 21.285 21.285h-2.528a1.33 1.33 0 00-1.33 1.33V50.91c0 .735.596 1.33 1.33 1.33h2.528c-.373 9.14-4.763 11.282-13.53 11.667v-.891a2.66 2.66 0 00-2.66-2.66h-8.367a2.66 2.66 0 00-2.661 2.66v4.323A2.66 2.66 0 0031.727 70h8.395a2.66 2.66 0 002.66-2.66v-.772c8.434-.386 15.724-2.129 16.163-14.407 3.42-.426 6.652-2.66 6.652-7.849V31.807c0-5.214-3.22-7.436-6.652-7.862zm-44.032 2.488V49.58h-2.595c-1.968 0-5.32-.692-5.32-5.321V31.754c0-4.59 3.312-5.321 5.32-5.321h2.595zM40.122 65.33v2.022h-8.395v-4.324h8.395v2.302zm22.814-21.032c0 4.59-3.312 5.32-5.321 5.32h-2.528V26.527h2.594c1.97 0 5.322.692 5.322 5.321L62.936 44.3z" fill="#357CDD"/></svg>