<svg width="66" height="82" fill="none" xmlns="http://www.w3.org/2000/svg"><path d="M33.16 2.906L5.477 14.664a5.133 5.133 0 00-2.715 6.723l23.355 54.992a5.133 5.133 0 006.723 2.715l27.685-11.758a5.133 5.133 0 002.715-6.723L39.884 5.621a5.133 5.133 0 00-6.723-2.715zM57.745 52.92L31.003 64.278a1.025 1.025 0 00.802 1.888l26.74-11.357 2.806 6.607a3.08 3.08 0 01-1.629 4.034L32.038 77.206a3.08 3.08 0 01-4.034-1.629l-2.806-6.606 2.831-1.203a1.025 1.025 0 10-.801-1.887l-2.832 1.202L6.653 25.304 40 11.142 57.744 52.92zM39.199 9.255L5.85 23.417l-1.2-2.832a3.08 3.08 0 011.628-4.034L33.962 4.794a3.08 3.08 0 014.034 1.629L39.2 9.254z" fill="#357CDD"/></svg>