<svg width="40" height="40" viewBox="0 0 40 40" fill="none" xmlns="http://www.w3.org/2000/svg">
<rect width="40" height="40" rx="20" fill="#393C42"/>
<path fill-rule="evenodd" clip-rule="evenodd" d="M30.4952 14.8802C30.6482 14.3729 30.4952 14 29.7673 14H27.3605C26.7485 14 26.4666 14.3221 26.3136 14.6774C26.3136 14.6774 25.0895 17.6456 23.3556 19.5738C22.7946 20.1319 22.5397 20.3093 22.2337 20.3093C22.0807 20.3093 21.8593 20.1319 21.8593 19.6246V14.8802C21.8593 14.2713 21.6817 14 21.1716 14H17.3895C17.0071 14 16.7771 14.2826 16.7771 14.5504C16.7771 15.1278 17.6439 15.2608 17.7333 16.8845V20.4111C17.7333 21.1842 17.593 21.3245 17.287 21.3245C16.4711 21.3245 14.4865 18.3427 13.3092 14.931C13.0785 14.2679 12.8471 14 12.232 14H9.82519C9.13753 14 9 14.3221 9 14.6774C9 15.3116 9.81608 18.4576 12.7993 22.6183C14.7884 25.4595 17.5903 27 20.1401 27C21.6701 27 21.8593 26.6579 21.8593 26.0686V23.9211C21.8593 23.2368 22.0042 23.1003 22.4885 23.1003C22.8457 23.1003 23.4575 23.2779 24.8856 24.6479C26.5175 26.2713 26.7863 27 27.7044 27H30.1112C30.7988 27 31.1427 26.6579 30.9443 25.9827C30.7273 25.3098 29.9482 24.3338 28.9143 23.1765C28.3533 22.5167 27.5118 21.8063 27.257 21.4512C26.9 20.9945 27.0019 20.7916 27.257 20.3859C27.257 20.3859 30.1892 16.2759 30.4952 14.8804V14.8802Z" fill="white"/>
</svg>
