<svg width="40" height="40" viewBox="0 0 40 40" fill="none" xmlns="http://www.w3.org/2000/svg">
<rect opacity="0.5" width="40" height="40" rx="20" fill="#333333"/>
<path fill-rule="evenodd" clip-rule="evenodd" d="M29.0542 12.4819C30.018 12.7414 30.7779 13.5013 31.0374 14.4651C31.5193 16.2258 31.5007 19.8956 31.5007 19.8956C31.5007 19.8956 31.5007 23.5469 31.0374 25.3077C30.7779 26.2715 30.018 27.0314 29.0542 27.2909C27.2934 27.7542 20.2504 27.7542 20.2504 27.7542C20.2504 27.7542 13.2258 27.7542 11.4465 27.2723C10.4827 27.0128 9.72284 26.2529 9.46336 25.2891C9 23.5469 9 19.8771 9 19.8771C9 19.8771 9 16.2258 9.46336 14.4651C9.72284 13.5013 10.5013 12.7228 11.4465 12.4634C13.2073 12 20.2504 12 20.2504 12C20.2504 12 27.2934 12 29.0542 12.4819ZM23.8646 19.8769L18.0077 23.2502V16.5037L23.8646 19.8769Z" fill="white"/>
</svg>
