<svg width="30" height="30" fill="none" xmlns="http://www.w3.org/2000/svg"><path d="M26.875 0H3.125A3.129 3.129 0 000 3.125v23.75A3.129 3.129 0 003.125 30h23.75A3.129 3.129 0 0030 26.875V3.125A3.129 3.129 0 0026.875 0zM3.125 28.75a1.877 1.877 0 01-1.875-1.875V3.125c0-1.034.841-1.875 1.875-1.875h23.75c1.034 0 1.875.841 1.875 1.875v23.75a1.877 1.877 0 01-1.875 1.875H3.125z" fill="#357CDD"/><path d="M20.625 20H9.375a.625.625 0 000 1.25h11.25a.625.625 0 000-1.25zm0-5.625H9.375a.625.625 0 000 1.25h11.25a.625.625 0 000-1.25zm0-5.625H9.375a.625.625 0 000 1.25h11.25a.625.625 0 000-1.25z" fill="#357CDD"/></svg>