<svg width="30" height="30" viewBox="0 0 30 30" fill="none" xmlns="http://www.w3.org/2000/svg">
<path d="M26.875 0H3.125C1.40125 0 0 1.4025 0 3.125V26.875C0 28.5975 1.40125 30 3.125 30H26.875C28.5987 30 30 28.5975 30 26.875V3.125C30 1.4025 28.5987 0 26.875 0ZM3.125 28.75C2.09125 28.75 1.25 27.9088 1.25 26.875V3.125C1.25 2.09125 2.09125 1.25 3.125 1.25H26.875C27.9088 1.25 28.75 2.09125 28.75 3.125V26.875C28.75 27.9088 27.9088 28.75 26.875 28.75H3.125Z" fill="#357CDD"/>
<path d="M20.625 20H9.375C9.03 20 8.75 20.28 8.75 20.625C8.75 20.97 9.03 21.25 9.375 21.25H20.625C20.97 21.25 21.25 20.97 21.25 20.625C21.25 20.28 20.97 20 20.625 20Z" fill="#357CDD"/>
<path d="M20.625 14.375H9.375C9.03 14.375 8.75 14.655 8.75 15C8.75 15.345 9.03 15.625 9.375 15.625H20.625C20.97 15.625 21.25 15.345 21.25 15C21.25 14.655 20.97 14.375 20.625 14.375Z" fill="#357CDD"/>
<path d="M20.625 8.75001H9.375C9.03 8.75001 8.75 9.03 8.75 9.375C8.75 9.72 9.03 10 9.375 10H20.625C20.97 10 21.25 9.72 21.25 9.375C21.25 9.03 20.97 8.75001 20.625 8.75001Z" fill="#357CDD"/>
</svg>
