<svg width="50" height="50" fill="none" xmlns="http://www.w3.org/2000/svg"><rect width="50" height="50" rx="7" fill="url(#paint0_linear)"/><g clip-path="url(#clip0)" fill-rule="evenodd" clip-rule="evenodd" fill="#fff"><path d="M19.18 17.667a2.52 2.52 0 012.522-2.521h7.333a2.52 2.52 0 012.52 2.52v14.667a2.52 2.52 0 01-2.52 2.521h-7.333a2.52 2.52 0 01-2.521-2.52V17.666zm2.522-1.146c-.633 0-1.146.513-1.146 1.146v14.666c0 .633.513 1.146 1.146 1.146h7.333c.633 0 1.146-.513 1.146-1.146V17.667c0-.633-.513-1.146-1.146-1.146h-7.333z"/><path d="M22.618 15.146a.687.687 0 00-.687.687v.917c0 .886.718 1.604 1.604 1.604h3.667c.886 0 1.604-.718 1.604-1.604v-.917a.687.687 0 00-.688-.687h-5.5z"/></g><defs><linearGradient id="paint0_linear" x1="38.176" y1="48.311" x2="13.851" y2="12.162" gradientUnits="userSpaceOnUse"><stop stop-color="#2641D1"/><stop offset="1" stop-color="#3333A3"/></linearGradient><clipPath id="clip0"><path fill="#fff" transform="translate(19 14)" d="M0 0h12.737v22H0z"/></clipPath></defs></svg>