<svg width="16" height="16" viewBox="0 0 16 16" fill="none" xmlns="http://www.w3.org/2000/svg">
<path d="M11.4099 1.32825C11.2468 1.32804 11.0838 1.33755 10.9219 1.35672C9.19703 1.5635 8.38266 2.50451 7.99987 3.31366C7.61556 2.50451 6.80271 1.5635 5.07636 1.35822C4.93868 1.34173 4.80023 1.33223 4.66155 1.32974H4.58987C0.336527 1.32974 -3.51726 7.87338 7.96327 14.6568C7.97426 14.6643 7.98673 14.6694 7.99987 14.6718C8.01035 14.6634 8.02306 14.6582 8.03647 14.6568C19.5155 7.87189 15.6647 1.32974 11.4099 1.32825ZM7.99987 13.7997C5.23497 12.1214 3.27224 10.3728 2.1437 8.59113C1.22868 7.15414 0.932819 5.7576 1.2729 4.55436C1.47629 3.84317 1.91019 3.21656 2.50879 2.76957C3.10739 2.32257 3.83802 2.07958 4.58987 2.07746H4.64478C4.75696 2.07984 4.86894 2.08784 4.98029 2.10144C6.10577 2.23629 6.88659 2.75026 7.30445 3.62983L7.99987 5.0878L8.69072 3.62983C9.10705 2.75026 9.8894 2.23629 11.0149 2.10144C11.1464 2.08561 11.2789 2.07761 11.4114 2.07746C12.1642 2.08046 12.8954 2.3249 13.4938 2.7736C14.0922 3.22231 14.5252 3.85074 14.7268 4.56335C15.0669 5.7621 14.765 7.16163 13.8545 8.60012C12.7275 10.3728 10.7633 12.1214 7.99987 13.7997Z" fill="#676F77" stroke="#676F77" stroke-width="0.5"/>
</svg>
