<svg width="23" height="16" viewBox="0 0 23 16" fill="none" xmlns="http://www.w3.org/2000/svg">
<path fill-rule="evenodd" clip-rule="evenodd" d="M20.0542 0.481894C21.018 0.741375 21.7779 1.50128 22.0374 2.46507C22.5193 4.22584 22.5007 7.89564 22.5007 7.89564C22.5007 7.89564 22.5007 11.5469 22.0374 13.3077C21.7779 14.2715 21.018 15.0314 20.0542 15.2909C18.2934 15.7542 11.2504 15.7542 11.2504 15.7542C11.2504 15.7542 4.22584 15.7542 2.44654 15.2723C1.48275 15.0128 0.722841 14.2529 0.463359 13.2891C0 11.5469 0 7.87711 0 7.87711C0 7.87711 0 4.22584 0.463359 2.46507C0.722841 1.50128 1.50128 0.722841 2.44654 0.463359C4.2073 0 11.2504 0 11.2504 0C11.2504 0 18.2934 0 20.0542 0.481894ZM14.8646 7.87694L9.00769 11.2502V4.50368L14.8646 7.87694Z" fill="white"/>
</svg>
