<svg width="24" height="24" fill="none" xmlns="http://www.w3.org/2000/svg"><g clip-path="url(#clip0)" fill="#B3B1B1"><path d="M22.404 12.31a.703.703 0 010-.62l.895-1.832a2.083 2.083 0 00-.899-2.767l-1.8-.955a.703.703 0 01-.366-.503l-.352-2.008a2.084 2.084 0 00-2.353-1.71l-2.018.286a.703.703 0 01-.591-.192L13.454.592a2.083 2.083 0 00-2.91 0L9.082 2.009a.704.704 0 01-.592.192l-2.018-.285a2.083 2.083 0 00-2.353 1.71l-.352 2.007a.703.703 0 01-.366.503l-1.8.955a2.083 2.083 0 00-.9 2.767l.896 1.831a.703.703 0 010 .622L.7 14.142a2.083 2.083 0 00.9 2.768l1.8.955a.703.703 0 01.366.503l.352 2.008a2.082 2.082 0 002.353 1.71l2.018-.286a.71.71 0 01.592.192l1.465 1.417a2.085 2.085 0 002.909 0l1.464-1.417a.704.704 0 01.592-.192l2.018.285a2.083 2.083 0 002.353-1.71l.352-2.007a.703.703 0 01.366-.503l1.8-.955a2.083 2.083 0 00.9-2.767l-.896-1.831zM9.232 5.772a2.54 2.54 0 012.537 2.538 2.54 2.54 0 01-2.537 2.538A2.54 2.54 0 016.694 8.31a2.54 2.54 0 012.538-2.54zm-1.31 11.286a.69.69 0 01-.979 0 .692.692 0 010-.979l9.135-9.135a.692.692 0 01.98.979l-9.136 9.135zm6.846 1.172a2.54 2.54 0 01-2.537-2.538 2.54 2.54 0 012.537-2.538 2.54 2.54 0 012.538 2.538 2.54 2.54 0 01-2.538 2.538z"/><path d="M14.768 14.538a1.154 1.154 0 10.002 2.308 1.154 1.154 0 00-.002-2.308zM9.232 7.155a1.155 1.155 0 000 2.307 1.154 1.154 0 000-2.307z"/></g><defs><clipPath id="clip0"><path fill="#fff" d="M0 0h24v24H0z"/></clipPath></defs></svg>