<svg width="24" height="24" fill="none" xmlns="http://www.w3.org/2000/svg"><path fill-rule="evenodd" clip-rule="evenodd" d="M12 10.76V2.5a.5.5 0 00-.5-.5h-.75a.5.5 0 00-.5.5v7a.5.5 0 01-.5.5h-.37a.5.5 0 01-.5-.5v-7a.5.5 0 00-.5-.5h-.76a.5.5 0 00-.5.5v7a.5.5 0 01-.5.5h-.37a.5.5 0 01-.5-.5v-7a.5.5 0 00-.5-.5H4.5a.5.5 0 00-.5.5v8.26a3 3 0 00.88 2.12l.83.83a1 1 0 00.7.29H7v7.5a.5.5 0 00.5.5h1a.5.5 0 00.5-.5V14h.59a1 1 0 00.7-.29l.83-.83a3 3 0 00.88-2.12zM19.5 2a.5.5 0 01.5.5v19a.5.5 0 01-.5.5h-1a.5.5 0 01-.5-.5V14h-2a1 1 0 01-1-1V6a4 4 0 014-4h.5z" fill="#B3B1B1"/></svg>