<svg width="50" height="50" viewBox="0 0 50 50" fill="none" xmlns="http://www.w3.org/2000/svg">
<path d="M44.5312 19.9922L45.5586 20.6898C45.6891 20.7781 45.8414 20.825 45.9976 20.825C46.0461 20.825 46.0961 20.8203 46.1445 20.8109C46.3476 20.7719 46.5273 20.6539 46.6437 20.482L48.3984 17.8953C48.6414 17.5383 48.5476 17.0523 48.1906 16.8102L25.4391 1.37187C25.1734 1.19218 24.8273 1.19218 24.5617 1.37187L1.80859 16.8109C1.45156 17.0531 1.35859 17.5391 1.60078 17.8961L3.35546 20.4828C3.47109 20.6547 3.65156 20.7727 3.85468 20.8117C4.05937 20.8508 4.26953 20.8062 4.44062 20.6906L5.46874 19.9922V27.8086C5.01093 28.0086 4.63671 28.3781 4.44062 28.8641C3.12734 32.1109 1.56249 36.3781 1.56249 38.2812C1.56249 41.0859 3.19531 43.2641 5.46874 43.6742V46.875H1.56249V48.4375H48.4375V46.875H44.5312V19.9922ZM4.21015 18.9586L3.33281 17.6641L25 2.96172L46.6672 17.6641L45.7898 18.9578L25.4391 5.14843C25.3062 5.05859 25.1531 5.01328 25 5.01328C24.8469 5.01328 24.6937 5.05859 24.5609 5.14843L4.21015 18.9586ZM3.12499 38.2812C3.12499 37.0117 4.13203 33.793 5.88828 29.45C5.97812 29.2289 6.17109 29.2055 6.24999 29.2055C6.3289 29.2055 6.52187 29.2289 6.61171 29.45C8.36796 33.793 9.37499 37.0117 9.37499 38.2812C9.37499 40.5445 8.06015 42.1875 6.24999 42.1875C4.43984 42.1875 3.12499 40.5445 3.12499 38.2812ZM7.03124 43.6742C9.30468 43.2641 10.9375 41.0859 10.9375 38.2812C10.9375 36.3781 9.37265 32.1109 8.05937 28.8641C7.86328 28.3781 7.48906 28.0086 7.03124 27.8086V18.932L25 6.73906L42.9687 18.932V34.1391L42.8375 33.9422C42.5476 33.507 41.8273 33.507 41.5375 33.9422L39.975 36.2859C39.8898 36.4133 39.8437 36.5648 39.8437 36.7187V38.2812H38.2812V36.7187C38.2812 36.5648 38.2351 36.4133 38.15 36.2852L36.5875 33.9414C36.2976 33.5062 35.5773 33.5062 35.2875 33.9414L33.725 36.2852C33.6398 36.4133 33.5937 36.5648 33.5937 36.7187V38.2812H32.0312V36.7187C32.0312 36.5648 31.9851 36.4133 31.9 36.2852L30.3375 33.9414C30.0476 33.5062 29.3273 33.5062 29.0375 33.9414L27.475 36.2852C27.3898 36.4133 27.3437 36.5648 27.3437 36.7187V46.875H22.6562V32.0312C22.6562 31.5992 22.307 31.25 21.875 31.25H13.2812C12.8492 31.25 12.5 31.5992 12.5 32.0312V46.875H7.03124V43.6742ZM30.4687 46.875H28.9062V36.9555L29.6875 35.7836L30.4687 36.9555V46.875ZM32.0312 39.8437H33.5937V41.4062H32.0312V39.8437ZM32.0312 42.9687H33.5937V46.875H32.0312V42.9687ZM36.7187 46.875H35.1562V36.9555L35.9375 35.7836L36.7187 36.9555V46.875ZM38.2812 39.8437H39.8437V41.4062H38.2812V39.8437ZM38.2812 42.9687H39.8437V46.875H38.2812V42.9687ZM21.0937 46.875H14.0625V32.8125H21.0937V46.875ZM41.4062 46.875V36.9555L42.1875 35.7836L42.9687 36.9555V46.875H41.4062Z" fill="#357CDD"/>
<path d="M22.6562 25.7812H27.3438C29.0672 25.7812 30.4688 24.3797 30.4688 22.6562V17.9688C30.4688 16.2453 29.0672 14.8438 27.3438 14.8438H22.6562C20.9328 14.8438 19.5312 16.2453 19.5312 17.9688V22.6562C19.5312 24.3797 20.9328 25.7812 22.6562 25.7812ZM21.0938 22.6562V21.0938H24.2188V24.2188H22.6562C21.7945 24.2188 21.0938 23.518 21.0938 22.6562ZM27.3438 24.2188H25.7812V21.0938H28.9062V22.6562C28.9062 23.518 28.2055 24.2188 27.3438 24.2188ZM28.9062 17.9688V19.5312H25.7812V16.4062H27.3438C28.2055 16.4062 28.9062 17.107 28.9062 17.9688ZM22.6562 16.4062H24.2188V19.5312H21.0938V17.9688C21.0938 17.107 21.7945 16.4062 22.6562 16.4062Z" fill="#357CDD"/>
<path d="M17.9688 39.0625H19.5312V40.625H17.9688V39.0625Z" fill="#357CDD"/>
</svg>
