<svg width="70" height="70" viewBox="0 0 70 70" fill="none" xmlns="http://www.w3.org/2000/svg">
<path d="M58.9453 23.9453C58.9453 10.7207 48.2246 0 35 0C21.7754 0 11.0547 10.7207 11.0547 23.9453C7.63587 24.371 4.40326 26.6059 4.40326 31.794V44.2987C4.40326 50.152 8.50056 52.2805 12.385 52.2805H16.2429C16.9775 52.2805 17.5732 51.6849 17.5732 50.9502V25.1957C17.5732 24.4611 16.9775 23.8655 16.2429 23.8655H13.7153C13.7153 12.1103 23.2449 2.58077 35 2.58077C46.7551 2.58077 56.2847 12.1103 56.2847 23.8655H53.7571C53.0225 23.8655 52.4268 24.4611 52.4268 25.1957V50.9103C52.4268 51.645 53.0225 52.2406 53.7571 52.2406H56.2847C55.9122 61.3797 51.5222 63.5215 42.7556 63.9073V63.016C42.7556 61.5465 41.5645 60.3554 40.095 60.3554H31.7275C30.258 60.3554 29.0669 61.5465 29.0669 63.016V67.3394C29.0669 68.8089 30.258 70 31.7275 70H40.1216C41.5911 70 42.7822 68.8089 42.7822 67.3394V66.5678C51.2163 66.1821 58.5063 64.4394 58.9453 52.1608C62.3641 51.7351 65.5967 49.5002 65.5967 44.312V31.8073C65.5967 26.5926 62.3774 24.371 58.9453 23.9453ZM14.9126 26.4329V49.58H12.3185C10.3497 49.58 6.99733 48.8883 6.99733 44.2588V31.7541C6.99733 27.1646 10.3098 26.4329 12.3185 26.4329H14.9126ZM40.1216 65.3307V67.3527H31.7275V63.0293H40.1216V65.3307ZM62.9361 44.2987C62.9361 48.8883 59.6237 49.6199 57.615 49.6199H55.0874V26.526H57.6815C59.6503 26.526 63.0027 27.2178 63.0027 31.8472L62.9361 44.2987Z" fill="#357CDD"/>
</svg>
