<svg width="70" height="70" viewBox="0 0 70 70" fill="none" xmlns="http://www.w3.org/2000/svg">
<g clip-path="url(#clip0)">
<path d="M47.489 40.1651C46.7931 40.0313 44.9054 39.6679 44.0441 39.5022C43.0047 39.3022 42.2503 38.3889 42.2503 37.3305V36.0365C43.003 35.5753 43.7285 35.0394 44.425 34.4273C46.8963 32.255 48.4229 29.1742 48.7312 25.7431C50.5363 25.681 51.9821 24.1768 51.9744 22.3433L51.9636 19.74C51.9602 18.9331 51.6701 18.1605 51.1555 17.5543V14.3637C51.1555 13.7903 50.6907 13.3255 50.1173 13.3255C49.5439 13.3255 49.079 13.7903 49.079 14.3637V16.5874C39.6193 13.928 30.3796 13.9278 20.921 16.5874V11.2037C20.921 7.71807 23.2821 4.69057 26.6627 3.84128L32.4268 2.39343C34.1102 1.97069 35.8898 1.97069 37.573 2.39343L43.3371 3.84128C46.1632 4.55112 48.3589 6.85428 48.9309 9.70884C49.0436 10.271 49.5909 10.6354 50.1529 10.5229C50.7151 10.4102 51.0796 9.86305 50.967 9.30087C50.2383 5.66483 47.4419 2.73139 43.843 1.82741L38.0789 0.379558C36.0646 -0.126438 33.9352 -0.126438 31.9208 0.379558L26.1567 1.82741C21.8513 2.90885 18.8443 6.7646 18.8443 11.2037V17.5544C18.3297 18.1607 18.0396 18.9333 18.0362 19.7402L18.0254 22.3434C18.0177 24.1768 19.4635 25.681 21.2686 25.7432C21.5769 29.1744 23.1035 32.2551 25.5749 34.4274C26.2712 35.0395 26.9969 35.5753 27.7495 36.0366V37.3307C27.7495 38.2977 27.1558 39.1983 25.9653 39.4996L22.511 40.1654C12.9792 41.9998 6.10284 50.3783 6.10284 60.0324V64.2577C6.10284 67.4241 8.6789 70.0003 11.8454 70.0003H58.1545C61.3209 70.0003 63.8971 67.4242 63.8971 64.2577V60.0324C63.8971 50.3404 56.9842 41.9925 47.489 40.1651ZM47.8406 42.3641C48.9613 42.6287 50.0378 42.9958 51.0618 43.4532V55.1343C50.3796 54.6722 49.5574 54.4019 48.6732 54.4019H47.8408V42.3641H47.8406ZM48.0923 18.4668C47.0204 19.5224 45.7711 21.1806 43.2376 20.743C40.4659 20.265 37.7333 20.026 35 20.026C32.2674 20.026 29.5343 20.265 26.7631 20.7429C24.2482 21.1769 22.9875 19.5315 21.9034 18.4679C30.6962 16.0715 39.2984 16.071 48.0923 18.4668ZM26.946 32.8676C24.8559 31.0304 23.5715 28.4028 23.3294 25.4687C23.2451 24.4468 22.4067 23.6729 21.3794 23.6685C20.672 23.6655 20.099 23.0749 20.102 22.3519L20.1128 19.7486C20.113 19.709 20.116 19.6698 20.1197 19.6307C21.7107 21.1701 23.4955 23.4137 27.1158 22.7893C32.4213 21.8743 37.5793 21.8743 42.8846 22.7894C46.6378 23.4365 48.548 20.9142 49.8801 19.6252C49.884 19.6661 49.887 19.7072 49.8872 19.7486L49.898 22.3519C49.901 23.0749 49.328 23.6654 48.6207 23.6685C47.5934 23.6729 46.7551 24.4468 46.6707 25.4688C46.4286 28.4028 45.1443 31.0305 43.0541 32.8678C38.2725 37.0706 31.7759 37.1133 26.946 32.8676ZM42.1716 40.9537L40.4171 42.3633C37.4352 44.7589 33.119 44.7434 30.1544 42.3262L28.1758 40.7131C30.023 39.2808 29.8104 37.1579 29.8261 37.0872C33.208 38.4641 36.7512 38.4806 40.1738 37.0872C40.1859 37.1345 39.9686 39.5575 42.1716 40.9537ZM24.5018 41.8967L25.9901 41.6102L28.8422 43.9357C32.5633 46.9696 37.9347 47.0214 41.7175 43.982L44.5423 41.7128L45.764 41.9479V54.4021H24.5018V41.8967ZM16.1857 60.8202C15.5526 61.5843 15.2039 62.5517 15.2039 63.5442V67.9235H11.8454C9.82405 67.9235 8.17947 66.279 8.17947 64.2576V60.7796H16.2193L16.1857 60.8202ZM17.1276 58.703H8.22882C8.67001 52.678 12.0848 47.3634 17.1274 44.3881V47.3906C17.1274 47.964 17.5923 48.4288 18.1657 48.4288C18.7391 48.4288 19.2039 47.964 19.2039 47.3906V43.337C20.2293 42.8985 21.306 42.5505 22.4251 42.3038V54.4021H21.5804C20.7014 54.4021 19.8837 54.6692 19.2039 55.1264V52.2444C19.2039 51.671 18.7391 51.2061 18.1657 51.2061C17.5923 51.2061 17.1274 51.671 17.1274 52.2444V58.703H17.1276ZM52.7197 67.9235H17.2803V63.5442C17.2803 62.4236 18.0484 61.9157 18.4055 61.3956C19.0438 60.6251 19.3873 59.6488 19.3873 58.6716C19.3873 57.4624 20.3711 56.4785 21.5804 56.4785H48.673C49.8822 56.4785 50.8661 57.4624 50.8661 58.6716C50.8777 58.7496 50.7561 60.0238 51.6852 61.2986C52.0751 61.9267 52.7194 62.4048 52.7194 63.4321V67.9235H52.7197ZM53.1383 58.703V44.5481C58.0349 47.5515 61.3378 52.7845 61.7712 58.703H53.1383ZM61.8205 64.2574C61.8205 66.2788 60.1759 67.9234 58.1545 67.9234H54.7962V63.4321C54.7962 62.5223 54.5129 61.6528 53.9771 60.9174L53.8766 60.7796H61.8205V64.2574Z" fill="#357CDD"/>
<path d="M31.1455 5.66809C29.7977 5.66809 28.7012 6.76458 28.7012 8.11235V9.91485C28.7012 11.2626 29.7977 12.3591 31.1455 12.3591H38.8545C40.2023 12.3591 41.2988 11.2626 41.2988 9.91485V8.11235C41.2988 6.76458 40.2023 5.66809 38.8545 5.66809H31.1455ZM39.2223 8.11235V9.91485C39.2223 10.1176 39.0574 10.2826 38.8545 10.2826H31.1455C30.9427 10.2826 30.7777 10.1177 30.7777 9.91485V8.11235C30.7777 7.90959 30.9426 7.74458 31.1455 7.74458H38.8545C39.0573 7.74458 39.2223 7.90959 39.2223 8.11235Z" fill="#357CDD"/>
</g>
<defs>
<clipPath id="clip0">
<rect width="70" height="70" fill="white"/>
</clipPath>
</defs>
</svg>
