<svg width="16" height="16" viewBox="0 0 16 16" fill="none" xmlns="http://www.w3.org/2000/svg">
<path d="M5.99999 14.6666C6.36818 14.6666 6.66666 14.3682 6.66666 14C6.66666 13.6318 6.36818 13.3333 5.99999 13.3333C5.6318 13.3333 5.33333 13.6318 5.33333 14C5.33333 14.3682 5.6318 14.6666 5.99999 14.6666Z" stroke="white" stroke-width="2" stroke-linecap="round" stroke-linejoin="round"/>
<path d="M14 14.6666C14.3682 14.6666 14.6667 14.3682 14.6667 14C14.6667 13.6318 14.3682 13.3333 14 13.3333C13.6318 13.3333 13.3333 13.6318 13.3333 14C13.3333 14.3682 13.6318 14.6666 14 14.6666Z" stroke="white" stroke-width="2" stroke-linecap="round" stroke-linejoin="round"/>
<path d="M0.666664 0.666656H3.33333L5.12 9.59332C5.18096 9.90025 5.34794 10.176 5.59169 10.3722C5.83545 10.5684 6.14046 10.6727 6.45333 10.6667L13.6 9.33332C13.6 9.33332 14.097 9.23632 14.3333 8.99999C14.6667 8.66666 14.9333 8.25999 14.9333 8.25999L15.3333 3.33332H3.86706" stroke="white" stroke-width="2" stroke-linecap="round" stroke-linejoin="round"/>
</svg>
