<svg width="45" height="62" fill="none" xmlns="http://www.w3.org/2000/svg"><rect x="4" y="4" width="41" height="58" rx="5" fill="url(#paint0_linear)"/><path transform="matrix(-1 0 0 1 40.967 16)" stroke="url(#paint1_linear)" stroke-width="3" stroke-linecap="round" d="M1.5-1.5h27.918"/><path transform="matrix(-1 0 0 1 40.967 22)" stroke="url(#paint2_linear)" stroke-width="3" stroke-linecap="round" d="M1.5-1.5h27.918"/><path transform="matrix(-1 0 0 1 40.967 28)" stroke="url(#paint3_linear)" stroke-width="3" stroke-linecap="round" d="M1.5-1.5h27.918"/><path transform="matrix(-1 0 0 1 40.967 34)" stroke="url(#paint4_linear)" stroke-width="3" stroke-linecap="round" d="M1.5-1.5h27.918"/><path stroke="url(#paint5_linear)" stroke-width="3" stroke-linecap="round" d="M20.648 50.833h-9.099"/><rect width="41" height="59" rx="5" fill="url(#paint6_linear)" fill-opacity=".5"/><defs><linearGradient id="paint0_linear" x1="12.843" y1="4" x2="45" y2="4" gradientUnits="userSpaceOnUse"><stop stop-color="#E1D8FF"/><stop offset="1" stop-color="#F4ECFF"/></linearGradient><linearGradient id="paint1_linear" x1="2.689" y1="0" x2="27.221" y2="0" gradientUnits="userSpaceOnUse"><stop stop-color="#BBA6FF"/><stop offset="1" stop-color="#CDBBEF"/></linearGradient><linearGradient id="paint2_linear" x1="2.689" y1="0" x2="27.221" y2="0" gradientUnits="userSpaceOnUse"><stop stop-color="#BBA6FF"/><stop offset="1" stop-color="#CDBBEF"/></linearGradient><linearGradient id="paint3_linear" x1="2.689" y1="0" x2="27.221" y2="0" gradientUnits="userSpaceOnUse"><stop stop-color="#BBA6FF"/><stop offset="1" stop-color="#CDBBEF"/></linearGradient><linearGradient id="paint4_linear" x1="2.689" y1="0" x2="27.221" y2="0" gradientUnits="userSpaceOnUse"><stop stop-color="#BBA6FF"/><stop offset="1" stop-color="#CDBBEF"/></linearGradient><linearGradient id="paint5_linear" x1="21.096" y1="49.333" x2="11.496" y2="49.333" gradientUnits="userSpaceOnUse"><stop stop-color="#BBA6FF"/><stop offset="1" stop-color="#CDBBEF"/></linearGradient><linearGradient id="paint6_linear" x1="8.843" y1="0" x2="41" y2="0" gradientUnits="userSpaceOnUse"><stop stop-color="#E1D8FF"/><stop offset="1" stop-color="#F4ECFF"/></linearGradient></defs></svg>